<svg xmlns="http://www.w3.org/2000/svg" xmlns:xlink="http://www.w3.org/1999/xlink" width="3316" height="1589" viewBox="0 0 3316 1589">
  <defs>
    <clipPath id="clip-Web_1280_1">
      <rect width="3316" height="1589"/>
    </clipPath>
  </defs>
  <g id="Web_1280_1" data-name="Web 1280 – 1" clip-path="url(#clip-Web_1280_1)">
    <rect width="3316" height="1589" fill="#fff"/>
    <g id="Group_999" data-name="Group 999" transform="translate(-3005 -6340)">
      <g id="Path_5768" data-name="Path 5768" transform="translate(3005 6341)" fill="#111">
        <path d="M 3315.5 1589.5 L 0.5 1589.5 L 0.5 0.5 L 3315.5 0.5 L 3315.5 1589.5 Z" stroke="none"/>
        <path d="M 1 1 L 1 1589 L 3315 1589 L 3315 1 L 1 1 M 0 0 L 3316 0 L 3316 1590 L 0 1590 L 0 0 Z" stroke="none" fill="#707070"/>
      </g>
      <line id="Line_2" data-name="Line 2" y2="1590" transform="translate(3340.5 6340.5)" fill="none" stroke="#000" stroke-width="6"/>
      <line id="Line_3" data-name="Line 3" y2="1590" transform="translate(4002.5 6341.5)" fill="none" stroke="#000" stroke-width="6"/>
      <line id="Line_4" data-name="Line 4" y2="1590" transform="translate(4662.5 6340.5)" fill="none" stroke="#000" stroke-width="6"/>
      <line id="Line_5" data-name="Line 5" y2="1590" transform="translate(5324.5 6340.5)" fill="none" stroke="#000" stroke-width="6"/>
      <line id="Line_6" data-name="Line 6" y2="1590" transform="translate(5985.5 6340.5)" fill="none" stroke="#000" stroke-width="6"/>
      <circle id="Ellipse_6" data-name="Ellipse 6" cx="25" cy="25" r="25" transform="translate(5584 7867)" fill="#252525"/>
      <g id="NewGroup0-11" transform="translate(2396.88 6976.146)">
        <g id="Group_547" data-name="Group 547" transform="translate(806.22 526)">
          <path id="Path_1515" data-name="Path 1515" d="M846.193,540.645h3.726v19.8h-3.726v-19.8Zm8.925-5.372h3.726v25.173h-3.726V535.272ZM864,545.064h3.726v15.381H864V545.064Zm8.926-6.413h3.726v21.794h-3.726V538.652ZM815.56,531.5v32.712a5.511,5.511,0,0,0,5.5,5.5H839.13v.087a2.9,2.9,0,0,0,2.9,2.9h0L831.2,591.468a1.62,1.62,0,0,0,2.816,1.6L845.8,572.707h9.056l11.785,20.364a1.62,1.62,0,1,0,2.816-1.6l-10.832-18.761h0a2.9,2.9,0,0,0,2.9-2.9v-.087H879.6a5.51,5.51,0,0,0,5.5-5.5V531.5a5.51,5.51,0,0,0-5.5-5.5H821.149a5.53,5.53,0,0,0-5.589,5.5Z" transform="translate(-775.092 -526)" fill="#3d7e9b"/>
          <path id="Path_1516" data-name="Path 1516" d="M839.689,550.245A15.555,15.555,0,1,0,824.135,565.8a15.57,15.57,0,0,0,15.555-15.555Z" transform="translate(-798.355 -497.039)" fill="#3d7e9b"/>
          <path id="Path_1517" data-name="Path 1517" d="M857.693,558.225a14.627,14.627,0,0,0-14.645-14.645h-5.069a3.7,3.7,0,0,1-.52,2.513l-1.95,3.38v.043a3.787,3.787,0,0,1-.564,1.95l2.3,8.146a6.1,6.1,0,0,1-.3,4.2l-4.983,10.832-4.983-10.832a5.869,5.869,0,0,1-.3-4.2l2.3-8.146a3.673,3.673,0,0,1-.563-1.95v-.043l-1.95-3.38a4.266,4.266,0,0,1-.52-2.513h-5.069a14.627,14.627,0,0,0-14.645,14.645v21.837h51.43V558.225Z" transform="translate(-806.22 -467.41)" fill="#3d7e9b"/>
          <path id="Path_1518" data-name="Path 1518" d="M818.943,546.186a1.966,1.966,0,0,0-1.69-2.946h-4.029a1.952,1.952,0,0,0-1.69,2.946l2.036,3.51a3.823,3.823,0,0,0,.3.433,1.2,1.2,0,0,0-.13.563,1.57,1.57,0,0,0,.823,1.343l-2.643,9.315a4.083,4.083,0,0,0,.217,2.773l3.076,6.759,3.077-6.759a4.08,4.08,0,0,0,.216-2.773l-2.643-9.315a1.517,1.517,0,0,0,.824-1.343,1.2,1.2,0,0,0-.13-.563,1.552,1.552,0,0,0,.3-.433l2.08-3.51Z" transform="translate(-789.437 -468.544)" fill="#3d7e9b"/>
          <path id="Path_1519" data-name="Path 1519" d="M871.281,542.27a3.088,3.088,0,0,0-3.076,3.076,3.4,3.4,0,0,0,.3,1.343l-7.366,9.749-1.95-1.256a3.081,3.081,0,0,0-6.109.563,3.78,3.78,0,0,0,.087.693l-6.8,7.842a2.8,2.8,0,0,0-.866-.13,3.04,3.04,0,0,0-1.517.39l-4.16-2.99a3.1,3.1,0,0,0-6.153.087l-14.081,11.135a1.6,1.6,0,0,0,1,2.86,1.737,1.737,0,0,0,1-.347l13.518-10.7a3.016,3.016,0,0,0,1.6.477,2.888,2.888,0,0,0,1.69-.52l3.943,2.816a3.078,3.078,0,0,0,6.153-.13,2.1,2.1,0,0,0-.043-.52l6.889-7.972a4.285,4.285,0,0,0,.736.087,2.967,2.967,0,0,0,1.82-.607l2.643,1.733a1.581,1.581,0,0,0,2.166-.39l8.405-11.179h.043a3.088,3.088,0,0,0,3.076-3.076,2.839,2.839,0,0,0-2.946-3.033Z" transform="translate(-763.699 -471.776)" fill="#3d7e9b"/>
        </g>
      </g>
      <g id="Group_602" data-name="Group 602" transform="translate(3023.393 6105.777)">
        <path id="Path_2016" data-name="Path 2016" d="M464.1,341.34a15.113,15.113,0,1,0,15.113,15.114A15.135,15.135,0,0,0,464.1,341.34Z" transform="translate(33.977 53.239)" fill="#666"/>
        <path id="Path_2017" data-name="Path 2017" d="M473.6,376.293,472.156,373a6.762,6.762,0,0,1-.3-4.838l2.694-8.629a6.878,6.878,0,0,0-.649-5.587l-2.544-4.439a.72.72,0,0,1,.648-1.1H461.731a16.051,16.051,0,0,0-16.061,16.061v1.3a51.65,51.65,0,0,0,10.375,6.135v-1.845a1.247,1.247,0,1,1,2.494,0v2.893a50.882,50.882,0,0,0,15.064,3.342Z" transform="translate(20.737 81.434)" fill="#666"/>
        <path id="Path_2018" data-name="Path 2018" d="M481.64,365.718v-1.247a16.051,16.051,0,0,0-16.061-16.061H455.4a.752.752,0,0,1,.648,1.1l-2.544,4.44a7.079,7.079,0,0,0-.649,5.586l2.694,8.629a6.763,6.763,0,0,1-.3,4.838l-1.5,3.292a53.212,53.212,0,0,0,15.213-3.442v-2.793a1.235,1.235,0,0,1,1.247-1.247,1.434,1.434,0,0,1,.9.349,1.2,1.2,0,0,1,.349.9V371.8a52.342,52.342,0,0,0,10.176-6.085Z" transform="translate(48.214 81.434)" fill="#666"/>
        <path id="Path_2019" data-name="Path 2019" d="M456.994,336.779a1.814,1.814,0,0,0-2.693,0l-4.24,4.838a1.8,1.8,0,0,0,2.694,2.394l1.1-1.247v15.612a1.8,1.8,0,0,0,3.591,0V342.764l1.1,1.247a1.781,1.781,0,0,0,1.347.6,1.884,1.884,0,0,0,1.2-.449,1.809,1.809,0,0,0,.15-2.544l-4.24-4.838Z" transform="translate(36.448 32.661)" fill="#666"/>
        <path id="Path_2020" data-name="Path 2020" d="M457.838,336.18a1.788,1.788,0,0,0-1.8,1.8v15.612l-1.1-1.247a1.8,1.8,0,0,0-2.694,2.394l4.24,4.838a1.814,1.814,0,0,0,2.693,0l4.24-4.838a1.8,1.8,0,0,0-2.694-2.394l-1.1,1.247V337.976a1.788,1.788,0,0,0-1.8-1.8Z" transform="translate(45.181 32.661)" fill="#666"/>
        <path id="Path_2021" data-name="Path 2021" d="M479.705,361.01H455.214V330.783h48.832V361.01Zm-.1,4.24A1.251,1.251,0,1,1,480.752,364a1.25,1.25,0,0,1-1.147,1.247Zm26.785-1.8V330.933a2.948,2.948,0,0,0-2.943-2.943H455.713a2.948,2.948,0,0,0-2.943,2.943v32.522a3.215,3.215,0,0,0,3.192,3.192h18.7a1.554,1.554,0,0,1,1.546,1.546v.449h-3.591a2.247,2.247,0,0,0-2.245,2.294v1.3h18.306v-1.3a2.288,2.288,0,0,0-2.294-2.294H482.8v-.449a1.554,1.554,0,0,1,1.546-1.546h18.7a3.189,3.189,0,0,0,3.342-3.192Z" transform="translate(49.052 0)" fill="#666"/>
        <path id="Path_2022" data-name="Path 2022" d="M491.7,360.97H442.864V330.743H491.7V360.97Zm-24.391,4.24a1.251,1.251,0,1,1,1.147-1.247,1.25,1.25,0,0,1-1.147,1.247ZM491.148,328H443.413a2.948,2.948,0,0,0-2.943,2.943v32.522a3.215,3.215,0,0,0,3.192,3.192h18.7a1.554,1.554,0,0,1,1.546,1.546v.449h-3.591a2.247,2.247,0,0,0-2.245,2.294v1.3h18.306v-1.3a2.278,2.278,0,0,0-2.245-2.294h-3.591V368.2a1.554,1.554,0,0,1,1.546-1.546h18.7a3.215,3.215,0,0,0,3.192-3.192V330.943A2.777,2.777,0,0,0,491.148,328Z" transform="translate(0 0.04)" fill="#666"/>
        <path id="Path_2023" data-name="Path 2023" d="M454.4,336.891h22.147a.576.576,0,0,0,.6-.6v-6.584a.576.576,0,0,0-.6-.6H454.4a.576.576,0,0,0-.6.6v6.584a.607.607,0,0,0,.6.6Z" transform="translate(53.16 4.466)" fill="#666"/>
        <path id="Path_2024" data-name="Path 2024" d="M480.565,331.14H458.419a.576.576,0,0,0-.6.6v8.28a.576.576,0,0,0,.6.6h22.147a.576.576,0,0,0,.6-.6v-8.28a.606.606,0,0,0-.6-.6Z" transform="translate(69.191 12.562)" fill="#666"/>
        <path id="Path_2025" data-name="Path 2025" d="M475.9,329.11H459.24a.132.132,0,0,0-.15.15v3.092a.132.132,0,0,0,.15.15H475.9a.132.132,0,0,0,.15-.15V329.26c.05-.05-.05-.15-.15-.15Z" transform="translate(74.256 4.466)" fill="#666"/>
        <path id="Path_2026" data-name="Path 2026" d="M475.9,329.98H459.24a.132.132,0,0,0-.15.15v3.093a.132.132,0,0,0,.15.15H475.9a.132.132,0,0,0,.15-.15V330.13c.05-.1-.05-.15-.15-.15Z" transform="translate(74.256 7.936)" fill="#666"/>
        <path id="Path_2027" data-name="Path 2027" d="M453.95,334.562h16.66a.132.132,0,0,0,.15-.15V331.32a.132.132,0,0,0-.15-.15H453.95a.132.132,0,0,0-.15.15v3.093a.159.159,0,0,0,.15.15Z" transform="translate(53.159 12.682)" fill="#666"/>
        <path id="Path_2028" data-name="Path 2028" d="M453.95,335.752h16.66a.132.132,0,0,0,.15-.15V332.51a.132.132,0,0,0-.15-.15H453.95a.132.132,0,0,0-.15.15V335.6a.225.225,0,0,0,.15.15Z" transform="translate(53.159 17.427)" fill="#666"/>
        <path id="Path_2029" data-name="Path 2029" d="M453.8,335.516h43.4v-1.9H453.8Z" transform="translate(53.159 22.452)" fill="#666"/>
        <path id="Path_2030" data-name="Path 2030" d="M441.32,331.3h44.343V329.11H441.32Z" transform="translate(3.39 4.466)" fill="#666"/>
        <path id="Path_2031" data-name="Path 2031" d="M441.32,332.425h44.343V330.23H441.32Z" transform="translate(3.39 8.933)" fill="#666"/>
        <path id="Path_2032" data-name="Path 2032" d="M441.32,346.483h8.28V331.07h-8.28Z" transform="translate(3.39 12.283)" fill="#666"/>
        <path id="Path_2033" data-name="Path 2033" d="M443.71,346.483h8.23V331.07h-8.23Z" transform="translate(12.921 12.283)" fill="#666"/>
        <path id="Path_2034" data-name="Path 2034" d="M445.85,336.058H467.6V331.07H445.85Z" transform="translate(21.455 12.283)" fill="#666"/>
        <path id="Path_2035" data-name="Path 2035" d="M445.85,338.1H467.6V333.11H445.85Z" transform="translate(21.455 20.418)" fill="#666"/>
      </g>
      <g id="NewGroup1-34" transform="matrix(0.914, -0.407, 0.407, 0.914, 4649.187, 7700.683)">
        <g id="Group_604" data-name="Group 604" transform="translate(535.994 330.27)">
          <path id="Path_2050" data-name="Path 2050" d="M605.64,395.71a39.667,39.667,0,0,1-38.487-30.125h5.756a1.769,1.769,0,0,0,1.555-2.647l-17.058-29.5a2.368,2.368,0,0,0-4.117,0l-17.058,29.5a1.769,1.769,0,0,0,1.555,2.647h7.563a49.967,49.967,0,0,0,99.914-1.387c0-1.428-.084-2.857-.168-4.286a39.687,39.687,0,0,1-39.454,35.8Z" transform="translate(-535.994 -323.947)" fill="#666"/>
          <path id="Path_2051" data-name="Path 2051" d="M553.931,330.27a1.883,1.883,0,0,0-1.891,1.891v6.933a1.883,1.883,0,0,0,1.891,1.891h.126a1.883,1.883,0,0,0,1.891-1.891v-6.933a1.883,1.883,0,0,0-1.891-1.891Z" transform="translate(-484.621 -330.27)" fill="#666"/>
          <path id="Path_2052" data-name="Path 2052" d="M559.739,330.9a1.9,1.9,0,0,0-2.479.966l-2.731,6.386a1.882,1.882,0,0,0,1.009,2.479l.126.042a1.881,1.881,0,0,0,2.479-1.008l2.731-6.386a1.882,1.882,0,0,0-1.009-2.479Z" transform="translate(-477.151 -328.756)" fill="#666"/>
          <path id="Path_2053" data-name="Path 2053" d="M565.5,334.976l-6.512,2.437a1.88,1.88,0,0,0-1.092,2.437l.042.126a1.88,1.88,0,0,0,2.437,1.092l6.512-2.437a1.88,1.88,0,0,0,1.093-2.437l-.042-.126a1.9,1.9,0,0,0-2.437-1.092Z" transform="translate(-466.275 -315.607)" fill="#666"/>
          <path id="Path_2054" data-name="Path 2054" d="M568.975,340.178v-.126a1.885,1.885,0,0,0-1.807-1.975l-6.933-.336a1.885,1.885,0,0,0-1.975,1.807v.126a1.885,1.885,0,0,0,1.807,1.975l6.933.336a1.885,1.885,0,0,0,1.975-1.807Z" transform="translate(-464.708 -306.355)" fill="#666"/>
          <path id="Path_2055" data-name="Path 2055" d="M567.658,345.926l.042-.126a1.9,1.9,0,0,0-.883-2.521l-6.26-3.025a1.9,1.9,0,0,0-2.521.882l-.042.126a1.9,1.9,0,0,0,.882,2.521l6.26,3.025a1.939,1.939,0,0,0,2.521-.882Z" transform="translate(-466.163 -298.91)" fill="#666"/>
          <path id="Path_2056" data-name="Path 2056" d="M561.5,350.462a1.83,1.83,0,0,0,2.647.168l.084-.084a1.83,1.83,0,0,0,.168-2.647l-4.538-5.21a1.83,1.83,0,0,0-2.647-.168l-.084.084a1.83,1.83,0,0,0-.168,2.647l4.538,5.21Z" transform="translate(-470.425 -292.606)" fill="#666"/>
          <path id="Path_2057" data-name="Path 2057" d="M555.905,343.393l-.126.042a1.925,1.925,0,0,0-1.218,2.353l2.143,6.6a1.925,1.925,0,0,0,2.353,1.219l.126-.042a1.925,1.925,0,0,0,1.218-2.353l-2.143-6.6a1.889,1.889,0,0,0-2.353-1.219Z" transform="translate(-476.805 -288.52)" fill="#666"/>
          <path id="Path_2058" data-name="Path 2058" d="M554.684,343.7a1.914,1.914,0,0,0-2.059,1.681l-.63,6.891a1.914,1.914,0,0,0,1.681,2.059h.126a1.914,1.914,0,0,0,2.059-1.681l.63-6.891a1.914,1.914,0,0,0-1.681-2.059Z" transform="translate(-484.786 -287.277)" fill="#666"/>
          <path id="Path_2059" data-name="Path 2059" d="M555.16,343.368a1.878,1.878,0,0,0-2.563.756l-3.319,6.092a1.878,1.878,0,0,0,.756,2.563l.126.084a1.878,1.878,0,0,0,2.563-.756l3.319-6.092a1.878,1.878,0,0,0-.756-2.563l-.126-.084Z" transform="translate(-494.211 -289.084)" fill="#666"/>
          <path id="Path_2060" data-name="Path 2060" d="M552.792,342.128l-5.42,4.328a1.871,1.871,0,0,0-.294,2.647l.084.126a1.871,1.871,0,0,0,2.647.294l5.42-4.328a1.871,1.871,0,0,0,.294-2.647l-.084-.126a1.871,1.871,0,0,0-2.647-.294Z" transform="translate(-501.843 -293.642)" fill="#666"/>
          <path id="Path_2061" data-name="Path 2061" d="M580.158,332.786l-26.3,18.067a4.478,4.478,0,1,0,5.882,6.513l21.428-23.487a.76.76,0,0,0-1.008-1.093Z" transform="translate(-485.849 -322.576)" fill="#666"/>
        </g>
      </g>
      <g id="NewGroup1-26" transform="translate(2962.492 7542.074) rotate(-30)">
        <g id="Group_620" data-name="Group 620" transform="translate(349.85 427)">
          <path id="Path_2223" data-name="Path 2223" d="M367.568,483.219h14.477v-15.1a9.8,9.8,0,0,1,9.77-9.77h15.32a9.8,9.8,0,0,1,9.77,9.77v15.1h8.171a17.679,17.679,0,0,0,8.748-33.039,8.218,8.218,0,0,0-11.9-11.057,23.97,23.97,0,0,0-44.807,11.546,17.685,17.685,0,1,0-9.548,32.551Z" transform="translate(-349.85 -427)" fill="#666"/>
          <path id="Path_2224" data-name="Path 2224" d="M376.764,456.467a2.767,2.767,0,0,0,2.753-2.753v-15.32a2.767,2.767,0,0,0-2.753-2.753h-15.32a2.767,2.767,0,0,0-2.753,2.753v15.32a2.767,2.767,0,0,0,2.753,2.753Z" transform="translate(-319.434 -397.272)" fill="#666"/>
          <path id="Path_2225" data-name="Path 2225" d="M370.2,469.137h15.321a2.767,2.767,0,0,0,2.753-2.753v-15.32a2.767,2.767,0,0,0-2.753-2.753H370.2a2.767,2.767,0,0,0-2.753,2.753v15.32a2.767,2.767,0,0,0,2.753,2.753Z" transform="translate(-289.294 -353.678)" fill="#666"/>
          <path id="Path_2226" data-name="Path 2226" d="M361.443,469.137h15.32a2.767,2.767,0,0,0,2.753-2.753v-15.32a2.767,2.767,0,0,0-2.753-2.753h-15.32a2.767,2.767,0,0,0-2.753,2.753v15.32a2.8,2.8,0,0,0,2.753,2.753Z" transform="translate(-319.434 -353.678)" fill="#666"/>
          <path id="Path_2227" data-name="Path 2227" d="M352.683,469.137H368a2.767,2.767,0,0,0,2.753-2.753v-15.32A2.767,2.767,0,0,0,368,448.31h-15.32a2.767,2.767,0,0,0-2.753,2.753v15.32a2.8,2.8,0,0,0,2.753,2.753Z" transform="translate(-349.575 -353.678)" fill="#666"/>
          <path id="Path_2228" data-name="Path 2228" d="M436.342,467.136v-10.08a6.652,6.652,0,0,0-6.661-6.661h-32.24V441.38h-7.061v9.015h-32.24a6.652,6.652,0,0,0-6.661,6.661v10.08h7.061v-9.681h31.84v9.681h7.061v-9.681h31.84v9.681Z" transform="translate(-344.242 -377.522)" fill="#666"/>
        </g>
      </g>
      <g id="NewGroup1-25" transform="matrix(0.966, -0.259, 0.259, 0.966, 5544.735, 7014.556)">
        <g id="Group_622" data-name="Group 622" transform="translate(439 427.97)">
          <path id="Path_2237" data-name="Path 2237" d="M452.109,438.87H449.08v4.962h3.029a2.486,2.486,0,0,0,1.776-.731,2.4,2.4,0,0,0,.731-1.776,2.5,2.5,0,0,0-2.507-2.455Z" transform="translate(-396.435 -381.942)" fill="#3d7e9b"/>
          <path id="Path_2238" data-name="Path 2238" d="M544.243,443.445H453.838a2.977,2.977,0,0,1,0-5.954h90.405a2.976,2.976,0,0,1,2.977,2.977,2.943,2.943,0,0,1-2.977,2.977Zm0,60.114H453.838a2.976,2.976,0,0,1-2.977-2.977,3.01,3.01,0,0,1,2.977-2.977h90.405a2.977,2.977,0,0,1,0,5.954Zm-18.488,12.43H453.786a2.977,2.977,0,1,1,0-5.954h71.969a2.975,2.975,0,0,1,2.977,2.977,2.911,2.911,0,0,1-2.977,2.977Zm-15.721,12.43h-56.2a2.977,2.977,0,0,1,0-5.954h56.2a2.976,2.976,0,0,1,2.977,2.977,2.943,2.943,0,0,1-2.977,2.977Zm-58.651-41.991a2.005,2.005,0,0,1,1.306-.47,1.88,1.88,0,0,1,1.149.366,1.609,1.609,0,0,1,.679,1.149,2.138,2.138,0,0,0,.94,1.462,3.182,3.182,0,0,0,1.88.522,2.815,2.815,0,0,0,1.671-.574,1.923,1.923,0,0,0,.784-1.671,2.726,2.726,0,0,0-.418-1.515,4.942,4.942,0,0,0-1.045-1.045,6.142,6.142,0,0,0-1.41-.783q-.783-.391-1.41-.783a11.407,11.407,0,0,1-1.306-1.045,9.356,9.356,0,0,1-1.149-1.306,5.972,5.972,0,0,1-.783-1.515,4.6,4.6,0,0,1-.313-1.723,4.921,4.921,0,0,1,.47-2.246,4.825,4.825,0,0,1,1.253-1.619,5.549,5.549,0,0,1,1.723-.94,6.235,6.235,0,0,1,1.932-.313,6.489,6.489,0,0,1,1.932.313,5.548,5.548,0,0,1,1.723.94,4.793,4.793,0,0,1,1.254,1.462,3.864,3.864,0,0,1,.47,1.88,2.114,2.114,0,0,1-.574,1.41,1.9,1.9,0,0,1-1.358.574,2.125,2.125,0,0,1-1.254-.418,1.909,1.909,0,0,1-.574-1.306,1.09,1.09,0,0,0-.574-.836,2.061,2.061,0,0,0-1.045-.261,1.671,1.671,0,0,0-1.2.418,1.337,1.337,0,0,0-.418.992,1.83,1.83,0,0,0,.366,1.2,2.732,2.732,0,0,0,.888.836,8.31,8.31,0,0,0,1.149.679,11.392,11.392,0,0,1,1.149.627,19.374,19.374,0,0,1,1.671,1.2,9.02,9.02,0,0,1,1.358,1.462,7.353,7.353,0,0,1,.888,1.671,5.766,5.766,0,0,1,.314,1.932,6.234,6.234,0,0,1-.575,2.664,4.814,4.814,0,0,1-1.462,1.88,5.811,5.811,0,0,1-1.985,1.149,6.534,6.534,0,0,1-2.246.366,6.684,6.684,0,0,1-2.507-.47,7.671,7.671,0,0,1-2.089-1.253,7.292,7.292,0,0,1-1.41-1.723,3.663,3.663,0,0,1-.522-1.88,2.266,2.266,0,0,1,.679-1.463Zm24.286-6.476a1.85,1.85,0,0,1,1.358.522,1.781,1.781,0,0,1,.574,1.306,1.871,1.871,0,0,1-.574,1.306,1.71,1.71,0,0,1-1.358.574h-6.581v5.327h7.051a1.781,1.781,0,0,1,1.306.574,1.85,1.85,0,0,1,.522,1.358,1.785,1.785,0,0,1-1.828,1.828h-8.931a1.657,1.657,0,0,1-1.306-.522,1.732,1.732,0,0,1-.522-1.306V474.572a1.658,1.658,0,0,1,.522-1.306,1.733,1.733,0,0,1,1.306-.522h8.931a1.85,1.85,0,0,1,1.358.522,1.78,1.78,0,0,1,.574,1.306,1.961,1.961,0,0,1-1.932,1.932h-7.051V480h6.581ZM491.7,489.979a.843.843,0,0,1,.157.47c0,.157.052.313.052.47a1.78,1.78,0,0,1-.574,1.306,2.062,2.062,0,0,1-1.306.522,1.723,1.723,0,0,1-1.567-.94l-3.395-6.685h-1.828v5.693a1.854,1.854,0,1,1-3.708,0V474.885a1.956,1.956,0,0,1,2.246-2.194h4.491a6.348,6.348,0,0,1,2.4.47,5.842,5.842,0,0,1,1.985,1.358,7.441,7.441,0,0,1,1.358,1.985,6.348,6.348,0,0,1,.47,2.4,6.139,6.139,0,0,1-.94,3.395,5.949,5.949,0,0,1-2.559,2.246l2.716,5.432Zm10.654-.992a1.678,1.678,0,0,1,1.88,1.932c0,1.253-.627,1.828-1.88,1.828h-6.894a1.881,1.881,0,1,1,0-3.76h1.619V476.452h-1.619a1.694,1.694,0,0,1-1.932-1.932c0-1.2.626-1.828,1.932-1.828h6.894a1.88,1.88,0,0,1,0,3.76H500.79v12.534ZM453.838,462.3h56.2a2.977,2.977,0,1,1,0,5.954h-56.2a2.976,2.976,0,0,1-2.977-2.977,2.943,2.943,0,0,1,2.977-2.977Zm0-6.424a2.977,2.977,0,0,1,0-5.954h71.969a2.977,2.977,0,0,1,0,5.954Zm60.584,24.181a1.874,1.874,0,0,1,1.932,1.932,1.781,1.781,0,0,1-.574,1.306,1.85,1.85,0,0,1-1.358.522H509.3v7.1a1.662,1.662,0,0,1-1.88,1.88c-1.253,0-1.828-.627-1.828-1.88V474.572a1.658,1.658,0,0,1,.522-1.306,1.733,1.733,0,0,1,1.306-.522h7.625a1.7,1.7,0,0,1,1.253.522,1.78,1.78,0,0,1,.575,1.306,1.9,1.9,0,0,1-.575,1.358,1.755,1.755,0,0,1-1.253.574H509.3v3.552h5.118Zm33.425-50.086H449.137a8.158,8.158,0,0,0-8.147,8.148v88.525a8.158,8.158,0,0,0,8.147,8.147h98.709a8.158,8.158,0,0,0,8.147-8.147V438.117a8.158,8.158,0,0,0-8.147-8.148Z" transform="translate(-430.597 -419.525)" fill="#3d7e9b"/>
          <path id="Path_2239" data-name="Path 2239" d="M556.25,548.406h-98.71a13.307,13.307,0,0,1-13.318-13.318V446.563a13.307,13.307,0,0,1,13.318-13.318h98.71a13.307,13.307,0,0,1,13.318,13.318v88.525a13.34,13.34,0,0,1-13.318,13.318Zm18.54-13.37V446.511a18.545,18.545,0,0,0-18.54-18.541h-98.71A18.545,18.545,0,0,0,439,446.511v88.525a18.545,18.545,0,0,0,18.54,18.541h98.71a18.545,18.545,0,0,0,18.54-18.541Z" transform="translate(-439 -427.97)" fill="#3d7e9b"/>
        </g>
      </g>
      <g id="NewGroup1-22" transform="translate(4398.888 5923)">
        <g id="Group_628" data-name="Group 628" transform="translate(713.99 427.77)">
          <path id="Path_2288" data-name="Path 2288" d="M760.211,427.77H736.1a4.245,4.245,0,1,0,0,8.489h19.822v17.7a4.245,4.245,0,1,0,8.489,0V431.975a4.154,4.154,0,0,0-4.2-4.2Z" transform="translate(-660.301 -427.77)" fill="#666"/>
          <path id="Path_2289" data-name="Path 2289" d="M718.275,458.2a4.247,4.247,0,0,0,4.245-4.245v-17.7h19.822a4.245,4.245,0,1,0,0-8.489H718.234a4.221,4.221,0,0,0-4.245,4.245V454a4.273,4.273,0,0,0,4.285,4.2Z" transform="translate(-713.99 -427.77)" fill="#666"/>
          <path id="Path_2290" data-name="Path 2290" d="M718.215,475.064h24.107a4.245,4.245,0,0,0,0-8.489H722.5v-17.7a4.245,4.245,0,0,0-8.489,0v21.984a4.154,4.154,0,0,0,4.2,4.2Z" transform="translate(-713.93 -377.115)" fill="#666"/>
          <path id="Path_2291" data-name="Path 2291" d="M760.181,444.63a4.247,4.247,0,0,0-4.245,4.245v17.7H736.114a4.245,4.245,0,0,0,0,8.489h24.107a4.222,4.222,0,0,0,4.245-4.245V448.835a4.273,4.273,0,0,0-4.285-4.2Z" transform="translate(-660.271 -377.115)" fill="#666"/>
          <path id="Path_2292" data-name="Path 2292" d="M767.9,507.1V500.49a24.21,24.21,0,0,0,19.5-19.5h6.608A30.709,30.709,0,0,1,767.9,507.1Zm-4.245-20.623a4.221,4.221,0,0,0-4.245,4.245V491.8a15.655,15.655,0,0,1-10.772-10.812h1.081a4.245,4.245,0,1,0,0-8.489h-1.041a15.676,15.676,0,0,1,10.772-10.772v1.041a4.245,4.245,0,0,0,8.49,0v-1.041A15.676,15.676,0,0,1,778.711,472.5H777.67a4.245,4.245,0,1,0,0,8.489h1.081A15.73,15.73,0,0,1,767.979,491.8v-1.081a4.342,4.342,0,0,0-4.325-4.245ZM759.41,507.1a30.666,30.666,0,0,1-26.069-26.109h6.607a24.161,24.161,0,0,0,19.5,19.5V507.1Zm0-60.667v6.607a24.215,24.215,0,0,0-19.5,19.461H733.3a30.794,30.794,0,0,1,26.109-26.069Zm8.489,0A30.666,30.666,0,0,1,793.968,472.5H787.36a24.165,24.165,0,0,0-19.5-19.461v-6.607Zm34.678,34.558h5.846a4.245,4.245,0,1,0,0-8.489h-5.846a39.173,39.173,0,0,0-34.639-34.6v-5.886a4.245,4.245,0,1,0-8.489,0V437.9a39.211,39.211,0,0,0-34.638,34.6h-5.847a4.245,4.245,0,1,0,0,8.489h5.847a39.253,39.253,0,0,0,34.638,34.678v5.806a4.245,4.245,0,1,0,8.489,0v-5.806a39.178,39.178,0,0,0,34.639-34.678Z" transform="translate(-711.797 -427.77)" fill="#666"/>
        </g>
      </g>
      <g id="NewGroup1-15" transform="matrix(1, -0.017, 0.017, 1, 5185.823, 5982.909)">
        <g id="Group_642" data-name="Group 642" transform="translate(439 528.84)">
          <path id="Path_2532" data-name="Path 2532" d="M468.69,550.39a2.457,2.457,0,0,1-2.3-2.45,2.493,2.493,0,0,1,2.3-2.45,2.455,2.455,0,0,1,0,4.9Zm53.04-10.72H451.18V553.2h7.862a3.126,3.126,0,0,1,3.114,3.114v.868H451.231v7.045H496.1v-2.552a4.467,4.467,0,0,0-4.492-4.492H475.377v-.868a3.094,3.094,0,0,1,3.114-3.114h37.061a6.275,6.275,0,0,0,6.279-6.279V539.67Z" transform="translate(-389.003 -484.384)" fill="#666"/>
          <path id="Path_2533" data-name="Path 2533" d="M550.3,534.66a5.817,5.817,0,0,0-5.82-5.82H450.04a5.817,5.817,0,0,0-5.82,5.82V556.3H469.9a9.8,9.8,0,0,1,9.8,9.8v13.936h70.6V534.66Z" transform="translate(-417.573 -528.84)" fill="#666"/>
          <path id="Path_2534" data-name="Path 2534" d="M439.87,540.368V544.3h53.141v-3.931a5.251,5.251,0,0,0-5.258-5.258H445.077a5.307,5.307,0,0,0-5.207,5.258Z" transform="translate(-435.429 -503.102)" fill="#666"/>
          <path id="Path_2535" data-name="Path 2535" d="M451.734,550.437H444.74v5.054h23.023a5.251,5.251,0,0,0,5.258-5.258V546.71H453.367V548.8a1.645,1.645,0,0,1-1.634,1.634Z" transform="translate(-415.438 -455.486)" fill="#666"/>
          <path id="Path_2536" data-name="Path 2536" d="M439.87,546.76h16.948a7.787,7.787,0,0,1,5.564,2.3,8.047,8.047,0,0,1,2.348,5.564v26.647h28.281V537.52H439.87v9.24Z" transform="translate(-435.429 -493.21)" fill="#666"/>
          <path id="Path_2537" data-name="Path 2537" d="M439,543.548v2.5h24.759v-2.5a3.312,3.312,0,0,0-3.318-3.318H442.369A3.323,3.323,0,0,0,439,543.548Z" transform="translate(-439 -482.086)" fill="#666"/>
          <path id="Path_2538" data-name="Path 2538" d="M439,548.06v2.246a3.312,3.312,0,0,0,3.318,3.318h18.071a3.311,3.311,0,0,0,3.318-3.318V548.06h-7.964v1.327a1.024,1.024,0,0,1-1.021,1.021h-6.739a1.024,1.024,0,0,1-1.021-1.021V548.06Z" transform="translate(-439 -449.945)" fill="#666"/>
          <path id="Path_2539" data-name="Path 2539" d="M439,571.888h24.759V541.77H439Z" transform="translate(-439 -475.764)" fill="#666"/>
        </g>
      </g>
      <g id="NewGroup1-11" transform="matrix(0.966, -0.259, 0.259, 0.966, 5139.021, 6208.647)">
        <g id="Group_650" data-name="Group 650" transform="translate(809.12 526)">
          <path id="Path_2604" data-name="Path 2604" d="M856.963,561.633,821.33,526v28.176a7.473,7.473,0,0,0,7.457,7.457Z" transform="translate(-763.704 -526)" fill="#ff2d55"/>
          <path id="Path_2605" data-name="Path 2605" d="M885.625,582.588a7.271,7.271,0,0,1,7.268,7.268v34.831a7.272,7.272,0,0,1-7.268,7.268h-59.75a7.271,7.271,0,0,1-7.268-7.268V589.856a7.271,7.271,0,0,1,7.268-7.268ZM816.577,526a7.473,7.473,0,0,0-7.457,7.457v107.8a7.473,7.473,0,0,0,7.457,7.457h78.3a7.473,7.473,0,0,0,7.457-7.457V566.4H874.156a12.226,12.226,0,0,1-12.224-12.224V526Z" transform="translate(-809.12 -526)" fill="#ff2d55"/>
          <path id="Path_2606" data-name="Path 2606" d="M834.837,564.225a2.393,2.393,0,1,1-3.823-2.879l4.2-5.569-8.023-14.017L813.41,568.568h29.12l-4.72-8.307-2.973,3.964Z" transform="translate(-793.163 -467.379)" fill="#ff2d55"/>
          <path id="Path_2607" data-name="Path 2607" d="M819.24,553.876l7.126,12.46h19.02L827.924,542.36Z" transform="translate(-771.478 -465.147)" fill="#ff2d55"/>
          <path id="Path_2608" data-name="Path 2608" d="M812.14,541.5v34.831a2.351,2.351,0,0,0,.9,1.888l16.613-32.329a2.334,2.334,0,0,1,2.077-1.274,2.288,2.288,0,0,1,2.124,1.18l9.2,16.047,9.392-12.46a2.414,2.414,0,0,1,1.935-.944,2.306,2.306,0,0,1,1.888.991l20.341,27.94a2.57,2.57,0,0,0,.236-1.038V541.5a2.518,2.518,0,0,0-2.5-2.5h-59.75a2.508,2.508,0,0,0-2.454,2.5Z" transform="translate(-797.887 -477.645)" fill="#ff2d55"/>
        </g>
      </g>
      <g id="NewGroup1-9" transform="translate(4879.338 6958.632) rotate(-30)">
        <g id="Group_654" data-name="Group 654" transform="translate(73 625)">
          <path id="Path_2636" data-name="Path 2636" d="M175.053,727.053H79.028V631.028h96.026v96.026ZM178.046,625H76.035A3.025,3.025,0,0,0,73,628.035V730.088a3.025,3.025,0,0,0,3.035,3.035H178.088a3.025,3.025,0,0,0,3.035-3.035V628.035A3.06,3.06,0,0,0,178.046,625Z" transform="translate(-73 -625)" fill="#666"/>
          <path id="Path_2637" data-name="Path 2637" d="M85.518,673.018h6.609v-7.233H85.518v-7.233h6.609v-7.233H85.518v-7.274h6.609v-6.568H99.36v6.568h7.192v-6.568h7.233v6.568h7.233v-6.568h6.61v6.568h-6.61v7.233h6.61v7.275h-6.61v7.233h6.61v7.274h-6.61v6.568h-7.233V673.06h-7.233v6.568H99.319V673.06H92.086v6.568h-6.61v-6.61ZM79.49,634.524v48.1a3.025,3.025,0,0,0,3.035,3.035h48.1a3.025,3.025,0,0,0,3.035-3.035v-48.1a3.025,3.025,0,0,0-3.035-3.035h-48.1a3.052,3.052,0,0,0-3.035,3.035Z" transform="translate(-52.511 -604.511)" fill="#666"/>
          <path id="Path_2638" data-name="Path 2638" d="M95.1,633.42h5.03l-5.944,5.986a3.035,3.035,0,0,0,2.162,5.155,2.992,2.992,0,0,0,2.162-.915l5.82-5.9V642.4a3.035,3.035,0,1,0,6.069,0V630.385h0v-.416a.249.249,0,0,0-.042-.166c0-.042-.042-.125-.042-.166a.153.153,0,0,0-.042-.125c0-.042-.042-.083-.042-.166,0-.041-.042-.083-.042-.125s-.042-.083-.042-.125c-.042-.041-.042-.083-.083-.125,0-.042-.042-.083-.083-.125s-.042-.083-.083-.125a.575.575,0,0,1-.125-.166c-.042-.042-.042-.083-.083-.125-.042-.083-.125-.125-.166-.208h0l-.083-.083-.125-.125c-.042-.042-.083-.042-.125-.083s-.083-.083-.125-.083c-.042-.042-.083-.042-.125-.083s-.083-.042-.125-.083-.083-.041-.125-.083a.153.153,0,0,0-.125-.042c-.042,0-.083-.042-.125-.042s-.083-.042-.125-.042-.083-.042-.125-.042-.083-.042-.166-.042a.25.25,0,0,1-.166-.042H95.225a3.025,3.025,0,0,0-3.035,3.035,2.923,2.923,0,0,0,2.91,3.035Z" transform="translate(-12.418 -617.582)" fill="#666"/>
          <path id="Path_2639" data-name="Path 2639" d="M90.986,656.193H86l5.944-5.986a3.028,3.028,0,1,0-4.323-4.24l-5.82,5.9v-4.656a3.035,3.035,0,0,0-6.069,0v12.014h0v.416a.25.25,0,0,0,.042.166c0,.042.042.125.042.166a.152.152,0,0,0,.042.125c0,.042.042.083.042.166,0,.042.042.083.042.125s.042.083.042.125c.042.042.042.083.083.125s.042.083.083.125.042.083.083.125a.577.577,0,0,1,.125.166c.042.042.042.083.083.125.042.083.125.125.166.208h0l.083.083.125.125c.042.042.083.042.125.083s.083.041.125.083.083.042.125.083.083.042.125.083.083.042.125.083c.042,0,.083.042.125.042s.083.041.125.041.083.042.125.042.083.042.125.042.083.042.125.042a.249.249,0,0,1,.166.042H90.861a3.025,3.025,0,0,0,3.035-3.035,2.872,2.872,0,0,0-2.91-3.036Z" transform="translate(-64.382 -564.449)" fill="#666"/>
          <path id="Path_2640" data-name="Path 2640" d="M107.428,643.96a3.025,3.025,0,0,0-3.035,3.035v5.03l-5.986-5.944a3.028,3.028,0,0,0-4.24,4.323l5.9,5.82H95.415a3.034,3.034,0,1,0,0,6.069h12.3a.153.153,0,0,0,.125-.042.313.313,0,0,0,.166-.042c.042,0,.125-.041.166-.041a.152.152,0,0,0,.125-.042c.042,0,.083-.042.166-.042.042,0,.083-.042.125-.042s.083-.042.125-.083.083-.042.125-.083.083-.042.125-.083.083-.042.125-.083.125-.083.166-.125c.042,0,.042-.042.083-.042.083-.083.166-.125.208-.208h0l.083-.083.125-.125c.042-.042.042-.083.083-.125s.083-.083.083-.125c.042-.042.042-.083.083-.125s.042-.083.083-.125.042-.083.083-.125a.152.152,0,0,0,.042-.125c0-.042.042-.083.042-.125s.042-.083.042-.166c0-.041.042-.083.042-.125s.042-.083.042-.166a.314.314,0,0,1,.042-.166V646.993a3.016,3.016,0,0,0-2.993-3.033Z" transform="translate(-11.818 -565.144)" fill="#666"/>
          <path id="Path_2641" data-name="Path 2641" d="M78.532,645.842a3.025,3.025,0,0,0,3.035-3.034v-5.03l5.986,5.944a3.025,3.025,0,0,0,2.12.873,2.992,2.992,0,0,0,2.162-.914,3.024,3.024,0,0,0-.042-4.282l-5.9-5.82h4.656a3.035,3.035,0,1,0,0-6.069H78.2c-.083,0-.166.042-.249.042-.042,0-.083.042-.125.042s-.083.042-.125.042-.083.042-.125.042-.083.042-.125.042-.083.041-.125.041c-.042.042-.083.042-.125.083s-.083.042-.125.083-.083.042-.125.083-.125.083-.166.125-.083.042-.125.083c-.083.042-.125.125-.208.166h0l-.083.083-.125.125c-.042.042-.042.083-.083.125s-.083.083-.083.125c-.042.042-.042.083-.083.125s-.042.083-.083.125-.042.083-.083.125a.153.153,0,0,0-.042.125c0,.042-.042.083-.042.125s-.042.083-.042.125-.042.083-.042.125-.042.083-.042.166a.314.314,0,0,1-.042.166v12.637a2.964,2.964,0,0,0,2.951,3.157Z" transform="translate(-64.856 -617.076)" fill="#666"/>
          <path id="Path_2642" data-name="Path 2642" d="M89.722,641.712V634.52H82.53v7.192Z" transform="translate(-42.914 -594.946)" fill="#666"/>
          <path id="Path_2643" data-name="Path 2643" d="M93.233,641.712V634.52H86v7.192Z" transform="translate(-31.96 -594.946)" fill="#666"/>
          <path id="Path_2644" data-name="Path 2644" d="M89.722,645.233V638H82.53v7.233Z" transform="translate(-42.914 -583.96)" fill="#666"/>
          <path id="Path_2645" data-name="Path 2645" d="M84.26,636.26v7.233h7.233V636.26Z" transform="translate(-37.453 -589.453)" fill="#666"/>
          <path id="Path_2646" data-name="Path 2646" d="M86,645.233h7.233V638H86Z" transform="translate(-31.96 -583.96)" fill="#666"/>
          <path id="Path_2647" data-name="Path 2647" d="M87.74,636.26v7.233h7.192V636.26Z" transform="translate(-26.466 -589.453)" fill="#666"/>
          <path id="Path_2648" data-name="Path 2648" d="M84.26,639.75v7.191h7.233V639.75Z" transform="translate(-37.453 -578.435)" fill="#666"/>
          <path id="Path_2649" data-name="Path 2649" d="M87.74,639.75v7.191h7.192V639.75Z" transform="translate(-26.466 -578.435)" fill="#666"/>
        </g>
      </g>
      <g id="NewGroup1-7" transform="translate(2886.88 6094.765)">
        <g id="Group_658" data-name="Group 658" transform="translate(256.011 629.32)">
          <path id="Path_2672" data-name="Path 2672" d="M400.284,712.336a.427.427,0,0,0-.225-.113l-14.687-7.99V639.015a8.189,8.189,0,0,0-8.215-8.216h-5.683v6.7h6.3a3.59,3.59,0,0,1,3.6,3.6v54.751H277.164V641.1a3.59,3.59,0,0,1,3.6-3.6h14.8v-6.7H281.1a8.189,8.189,0,0,0-8.215,8.216v65.218l-14.687,7.99a.427.427,0,0,1-.225.113c-3.6,2.194-1.913,7.822,2.307,7.822h137.75c4.164-.057,5.852-5.627,2.25-7.822Z" transform="translate(-256.011 -622.473)" fill="#fff"/>
          <path id="Path_2673" data-name="Path 2673" d="M286.99,638.6a3.2,3.2,0,0,1,2.363-1.069,3.023,3.023,0,0,1,2.813,1.8,3.1,3.1,0,0,1-.45,3.32l-8.384,9.678,8.384,9.678a3.109,3.109,0,0,1-2.364,5.121,3.2,3.2,0,0,1-2.363-1.069l-11.873-13.786L286.99,638.6Zm20.6,4.108a3.109,3.109,0,0,1,2.363-5.121,3.2,3.2,0,0,1,2.364,1.069l11.873,13.786-11.873,13.786a3.206,3.206,0,0,1-2.364,1.069,3.023,3.023,0,0,1-2.813-1.8,3.1,3.1,0,0,1,.45-3.32l8.384-9.678-8.384-9.791ZM263.3,687.053s18.963-.113,25.434-11.7h38.6a6.172,6.172,0,0,0,6.19-6.19V635.51a6.172,6.172,0,0,0-6.19-6.19H272.247a6.172,6.172,0,0,0-6.19,6.19v33.65a6.211,6.211,0,0,0,5.8,6.19,12.3,12.3,0,0,1-8.553,11.7Z" transform="translate(-222.283 -629.32)" fill="#fff"/>
        </g>
      </g>
      <g id="NewGroup1-6" transform="translate(4472.393 6094.845)">
        <g id="Group_660" data-name="Group 660" transform="translate(347.99 629.24)">
          <path id="Path_2687" data-name="Path 2687" d="M391.058,643.024a4.453,4.453,0,1,1,4.453-4.453,4.48,4.48,0,0,1-4.453,4.453Zm-14.137,0a4.453,4.453,0,1,1,4.453-4.453,4.435,4.435,0,0,1-4.453,4.453Zm-14.137,0a4.453,4.453,0,1,1,4.453-4.453,4.435,4.435,0,0,1-4.453,4.453Zm168.94-5.372a8.387,8.387,0,0,0-8.412-8.412H356.422a8.387,8.387,0,0,0-8.412,8.412V647.9H531.794v-10.25Z" transform="translate(-347.868 -629.24)" fill="#666"/>
          <path id="Path_2688" data-name="Path 2688" d="M358.2,658.131a10.957,10.957,0,0,0,7.988,3.393,10.251,10.251,0,0,0,4.453-.919,10.6,10.6,0,0,0,3.6-2.474A11.617,11.617,0,0,0,377.64,650a10.7,10.7,0,0,0-.919-4.454,11.55,11.55,0,0,0-6.15-6.15,10.376,10.376,0,0,0-4.383-.919,10.251,10.251,0,0,0-4.453.919,11.487,11.487,0,0,0-5.867,6.221,11.882,11.882,0,0,0-.848,4.453,11.265,11.265,0,0,0,.848,4.382,8.64,8.64,0,0,0,2.332,3.676Z" transform="translate(-305.327 -573.166)" fill="#666"/>
          <path id="Path_2689" data-name="Path 2689" d="M363.631,658.131a10.956,10.956,0,0,0,7.988,3.393,10.249,10.249,0,0,0,4.453-.919,10.6,10.6,0,0,0,3.605-2.474A11.616,11.616,0,0,0,383.069,650a10.7,10.7,0,0,0-.919-4.454A11.549,11.549,0,0,0,376,639.4a10.377,10.377,0,0,0-4.383-.919,10.252,10.252,0,0,0-4.453.919,11.487,11.487,0,0,0-5.867,6.221,11.884,11.884,0,0,0-.848,4.453,11.266,11.266,0,0,0,.848,4.382,8.642,8.642,0,0,0,2.332,3.676Z" transform="translate(-272.374 -573.166)" fill="#666"/>
          <path id="Path_2690" data-name="Path 2690" d="M374.029,645.81a4.214,4.214,0,0,0,1.2-3.04,4.289,4.289,0,0,0-1.2-2.969,3.892,3.892,0,0,0-2.969-1.2H365.9v8.412h5.16a3.8,3.8,0,0,0,2.969-1.2Z" transform="translate(-239.301 -572.437)" fill="#666"/>
          <path id="Path_2691" data-name="Path 2691" d="M364.884,674.434l20.287-23.539a4.5,4.5,0,0,1,7.493,1.061,4.425,4.425,0,0,1,.424,1.908v.566c-.071.282-.141.636-.212.919l-.212.424a3.1,3.1,0,0,1-.283.495c-.141.142-.212.353-.353.494L373.154,678.6a3.655,3.655,0,0,0,0,4.807l18.873,21.842a4.579,4.579,0,0,1,.707,4.806h0a4.425,4.425,0,0,1-4.1,2.616,4.517,4.517,0,0,1-3.393-1.555l-20.287-23.539a10,10,0,0,1-.071-13.149Zm36.827-6.715a16.309,16.309,0,0,1,7-1.414,18.379,18.379,0,0,1,7.139,1.414,17.673,17.673,0,0,1,5.725,3.817,17.766,17.766,0,0,1-.071,25.093,16.161,16.161,0,0,1-5.655,3.747,17.547,17.547,0,0,1-6.927,1.343,17.893,17.893,0,0,1-7-1.343,17.555,17.555,0,0,1-5.655-3.747,18.227,18.227,0,0,1-3.817-5.584,17.988,17.988,0,0,1,3.676-19.509,21.111,21.111,0,0,1,5.584-3.817Zm29.052,9.684a17.481,17.481,0,0,1,3.746-5.725,18.054,18.054,0,0,1,5.584-3.888,16.31,16.31,0,0,1,7-1.414,18.382,18.382,0,0,1,7.139,1.414,17.679,17.679,0,0,1,5.725,3.817,17.765,17.765,0,0,1-.071,25.093,16.158,16.158,0,0,1-5.655,3.747,17.545,17.545,0,0,1-6.927,1.343,17.892,17.892,0,0,1-7-1.343,17.555,17.555,0,0,1-5.655-3.747,17.063,17.063,0,0,1-3.817-5.584,17.332,17.332,0,0,1-1.414-6.927,18.142,18.142,0,0,1,1.343-6.786Zm37.464-6.574c0-2.474,1.272-3.747,3.817-3.747h7.634a10.393,10.393,0,0,1,4.1.848,12.381,12.381,0,0,1,3.393,2.262,10.966,10.966,0,0,1,2.262,3.393,10.332,10.332,0,0,1,0,8.2,10.581,10.581,0,0,1-5.655,5.584,10.139,10.139,0,0,1-4.1.848h-5.089V697.9c0,2.12-1.06,3.252-3.11,3.252-2.121,0-3.181-1.061-3.181-3.252V670.828Zm17.884-18.8a4.425,4.425,0,0,1,4.1-2.616,4.518,4.518,0,0,1,3.393,1.555l21.347,24.67a8.265,8.265,0,0,1,0,10.815L493.6,711.191a4.5,4.5,0,0,1-7.493-1.061,4.439,4.439,0,0,1,.707-4.806l18.944-21.913a3.631,3.631,0,0,0,0-4.665l-18.944-21.913a4.439,4.439,0,0,1-.707-4.807Zm-138.05,70.615a8.387,8.387,0,0,0,8.412,8.412h166.89a8.387,8.387,0,0,0,8.412-8.412V632.87H347.99v89.772Z" transform="translate(-347.99 -607.211)" fill="#666"/>
        </g>
      </g>
      <g id="Group_784" data-name="Group 784" transform="translate(5623.02 7595.634) rotate(-30)">
        <path id="Path_3906" data-name="Path 3906" d="M289.868,244.014a3.65,3.65,0,1,1,3.65-3.65,3.584,3.584,0,0,1-3.65,3.65Zm-11.679,0a3.65,3.65,0,1,1,3.65-3.65,3.584,3.584,0,0,1-3.65,3.65Zm-11.619,0a3.65,3.65,0,1,1,3.65-3.65,3.661,3.661,0,0,1-3.65,3.65ZM172.83,232.03a5.841,5.841,0,0,0-5.84,5.84V248.7H305.258V237.87a5.841,5.841,0,0,0-5.84-5.84Z" transform="translate(10.166 0)" fill="#666"/>
        <path id="Path_3907" data-name="Path 3907" d="M185.6,240.33a5.718,5.718,0,1,0,5.718,5.718,5.711,5.711,0,0,0-5.718-5.718Z" transform="translate(75.687 42.19)" fill="#666"/>
        <path id="Path_3908" data-name="Path 3908" d="M195.54,245.3a10.95,10.95,0,1,0,10.949,10.95A10.982,10.982,0,0,0,195.54,245.3Z" transform="translate(99.628 67.452)" fill="#666"/>
        <path id="Path_3909" data-name="Path 3909" d="M208.933,273.9l-13.565,13.018a6.907,6.907,0,0,1-9.794-.182,7.14,7.14,0,0,1-1.947-4.988,6.916,6.916,0,0,1,2.129-4.867l8.212-7.847-8.091-7.482a6.966,6.966,0,0,1,4.684-12.105,6.954,6.954,0,0,1,4.684,1.825l13.565,12.47a7.068,7.068,0,0,1,2.251,5.049,6.847,6.847,0,0,1-2.129,5.11Zm47.935,32c-.061-.608-.061-1.217-.061-1.764,0-.669,0-1.338.061-2.007a3.651,3.651,0,0,0-.426-1.947l-3.771-6.509a2.786,2.786,0,0,0-2.433-1.4h-3.1a2.721,2.721,0,0,1-2.555-1.7l-1.217-3.042a2.878,2.878,0,0,0-1.217-1.338c-.487-.243-.912-.547-1.4-.852a2.4,2.4,0,0,0-1.7-.426l-4.258.426a1.66,1.66,0,0,1-1.582-.791l-4.562-7.908a1.667,1.667,0,0,1,.122-1.825l2.92-3.832a1.431,1.431,0,0,0,.3-.973v-1.947a1.431,1.431,0,0,0-.3-.973l-2.8-3.893a1.855,1.855,0,0,1-.122-2.007l4.441-7.665a1.757,1.757,0,0,1,1.825-.912l4.38.608a1.386,1.386,0,0,0,.973-.243,15.18,15.18,0,0,1,2.129-1.278,1.2,1.2,0,0,0,.669-.669l1.947-4.319a1.518,1.518,0,0,1,1.338-.912h9.307a1.537,1.537,0,0,1,1.4.912l1.582,3.832a1.186,1.186,0,0,0,.608.608,19.443,19.443,0,0,1,3.1,1.764.923.923,0,0,0,.791.182l4.136-.426a1.5,1.5,0,0,1,1.4.73l4.684,8.09a1.374,1.374,0,0,1-.122,1.582l-2.312,2.981a1.639,1.639,0,0,0-.3.912c.061.608.122,1.277.122,1.886,0,.669-.061,1.277-.122,1.947a1.362,1.362,0,0,0,.365,1.034l2.8,3.042a.663.663,0,0,0,1.095-.182l1.825-4.076a1.6,1.6,0,0,1,1.521-.973h12.531a1.812,1.812,0,0,1,1.582,1.034l2.372,5.718a2.387,2.387,0,0,0,1.278,1.277,28.173,28.173,0,0,1,5.6,3.163,2.174,2.174,0,0,0,1.582.426l1.947-.183V235.76H166.96v15.086a7.059,7.059,0,0,1,4.5-1.642,7.193,7.193,0,0,1,5.049,2.129,7.1,7.1,0,0,1,1.947,4.927,6.915,6.915,0,0,1-2.129,4.866l-8.212,7.847,8.091,7.482a6.966,6.966,0,0,1-4.684,12.105,7.185,7.185,0,0,1-4.5-1.642v19.04a5.841,5.841,0,0,0,5.84,5.84h78.776a2.766,2.766,0,0,0,2.19-1.095l2.19-2.859a2.2,2.2,0,0,0,.851-1.947Z" transform="translate(10.014 18.96)" fill="#666"/>
        <path id="Path_3910" data-name="Path 3910" d="M210.6,287.775a15.268,15.268,0,1,1,15.268-15.268A15.239,15.239,0,0,1,210.6,287.775ZM234.138,253.1l-7.178.73a24.668,24.668,0,0,0-9-4.988v-.061l-2.8-6.752h-9.55l-3.1,6.752a.659.659,0,0,1-.487.669,25.034,25.034,0,0,0-7.239,4.38.735.735,0,0,1-.852.061l-.183-.122-7.239-.973-4.745,8.273,4.319,6.083a1.348,1.348,0,0,1,.669,1.4,24.632,24.632,0,0,0-.3,3.65,23.966,23.966,0,0,0,.3,3.65,1.4,1.4,0,0,1-.669,1.4l-4.5,5.779,4.745,8.273,7.3-.73c.061,0,.183-.061.243-.061a.93.93,0,0,1,.973.061,24.059,24.059,0,0,0,7.3,4.38.532.532,0,0,1,.365.547.46.46,0,0,0,.061.243l2.737,6.691h9.55l3.1-6.752v-.061a25.167,25.167,0,0,0,9-4.988l7.056.973,4.745-8.273-4.076-5.657a24.939,24.939,0,0,0,0-10.949l4.2-5.414-4.745-8.212Z" transform="translate(84.328 50.831)" fill="#666"/>
        <path id="Path_3911" data-name="Path 3911" d="M196.076,267.157a9.672,9.672,0,1,1,9.672-9.672,9.658,9.658,0,0,1-9.672,9.672Zm14.9-21.96-4.562.426a16.446,16.446,0,0,0-5.718-3.163V242.4l-1.764-4.319h-6.022l-1.947,4.258a.213.213,0,0,1-.061.122.5.5,0,0,1-.243.365,15.683,15.683,0,0,0-4.745,2.859.375.375,0,0,1-.426.061l-.122-.061c-.061,0-.061-.061-.122-.061l-3.65-.487a1.276,1.276,0,0,0-1.277.608l-2.19,3.772a1.3,1.3,0,0,0,.061,1.4l2.251,3.163.547.3a14.165,14.165,0,0,0,0,5.84l-.547.3-2.433,3.163a1.015,1.015,0,0,0-.061,1.095l2.372,4.136a.95.95,0,0,0,.912.487l3.954-.365a.224.224,0,0,0,.182-.061h0a.453.453,0,0,1,.547.061,16.2,16.2,0,0,0,4.623,2.8.457.457,0,0,1,.3.426l1.521,3.771a.866.866,0,0,0,.791.547h4.927a.815.815,0,0,0,.791-.487l1.7-3.772v-.061A15.52,15.52,0,0,0,206.3,269.1l3.832.487a1.027,1.027,0,0,0,1.034-.487l2.372-4.076a1.015,1.015,0,0,0-.061-1.095l-2.19-3.042a16.657,16.657,0,0,0,0-6.935l2.676-3.467L210.98,245.2Z" transform="translate(65.209 30.753)" fill="#666"/>
        <path id="Path_3912" data-name="Path 3912" d="M181.6,270.116a2.918,2.918,0,0,0,2.19-.973,2.976,2.976,0,0,0-.182-4.2L172.35,254.6,183.6,243.776a2.968,2.968,0,0,0-4.137-4.258L165.9,252.536a2.892,2.892,0,0,0-.913,2.19,3.047,3.047,0,0,0,.973,2.19l13.565,12.47a3.71,3.71,0,0,0,2.068.73Z" transform="translate(0 33.694)" fill="#666"/>
        <path id="Path_3913" data-name="Path 3913" d="M175.327,239.451a2.8,2.8,0,0,0-2.007-.791,2.918,2.918,0,0,0-2.19.973,2.976,2.976,0,0,0,.182,4.2l11.254,10.341L171.313,265a2.968,2.968,0,1,0,4.137,4.258l13.565-13.018a2.892,2.892,0,0,0,.912-2.19,3.046,3.046,0,0,0-.973-2.19l-13.626-12.409Z" transform="translate(27.256 33.701)" fill="#666"/>
      </g>
      <g id="Group_786" data-name="Group 786" transform="translate(3968.832 6249.56)">
        <path id="Path_3929" data-name="Path 3929" d="M345.576,275.858H261.009a.806.806,0,0,1-.825-.825V238.849a.806.806,0,0,1,.825-.825h93.524a.806.806,0,0,1,.825.825v27.58c.294,0,.589-.059.884-.059a11.624,11.624,0,0,1,2.829.354l.472.118V238.849a5.005,5.005,0,0,0-5.009-5.009H261.009A5.005,5.005,0,0,0,256,238.849v36.184a5.005,5.005,0,0,0,5.009,5.009h84.92l-.059-.177a11.636,11.636,0,0,1-.295-4.007Z" transform="translate(0 0)" fill="#666"/>
        <path id="Path_3930" data-name="Path 3930" d="M262.665,240.328a2.225,2.225,0,0,1,1.356-.471,1.612,1.612,0,0,1,1.709,1.238l3.477,12.081,2.888-11.492a2.041,2.041,0,0,1,2.121-1.768,2.1,2.1,0,0,1,2.18,1.827l2.888,11.492,3.359-12.022a1.585,1.585,0,0,1,.707-1,1.885,1.885,0,0,1,1.12-.295,2.059,2.059,0,0,1,1.3.472,1.41,1.41,0,0,1,.589,1.237,1.15,1.15,0,0,1-.059.413c-.059.118-.059.295-.118.471l-4.832,15.97a2.4,2.4,0,0,1-.884,1.238,2.175,2.175,0,0,1-1.355.412,2.606,2.606,0,0,1-1.414-.412,1.876,1.876,0,0,1-.884-1.3L274.1,247.872l-2.711,10.549a2.157,2.157,0,0,1-.943,1.3,3.008,3.008,0,0,1-1.3.412,2.253,2.253,0,0,1-2.3-1.709l-4.773-15.97a2.305,2.305,0,0,1-.118-.766,2.17,2.17,0,0,1,.707-1.356Zm26.578,0a2.1,2.1,0,0,1,1.355-.471,1.612,1.612,0,0,1,1.709,1.238l3.477,12.081,2.888-11.492a2.041,2.041,0,0,1,2.121-1.768,2.1,2.1,0,0,1,2.18,1.827l2.888,11.492,3.359-12.022a1.585,1.585,0,0,1,.707-1,1.885,1.885,0,0,1,1.12-.295,2.059,2.059,0,0,1,1.3.472,1.41,1.41,0,0,1,.589,1.237,1.151,1.151,0,0,1-.059.413c-.059.118-.059.295-.118.471l-4.832,15.97a2.4,2.4,0,0,1-.884,1.238,2.175,2.175,0,0,1-1.356.412,2.606,2.606,0,0,1-1.414-.412,1.877,1.877,0,0,1-.884-1.3l-2.711-10.549-2.711,10.549a2.156,2.156,0,0,1-.943,1.3,3.009,3.009,0,0,1-1.3.412,2.254,2.254,0,0,1-2.3-1.709l-4.773-15.97a2.309,2.309,0,0,1-.118-.766,2.5,2.5,0,0,1,.707-1.356Zm26.578,0a2.1,2.1,0,0,1,1.356-.471,1.612,1.612,0,0,1,1.709,1.238l3.477,12.081,2.888-11.492a2.041,2.041,0,0,1,2.122-1.768,2.1,2.1,0,0,1,2.18,1.827l2.888,11.492,3.359-12.022a1.585,1.585,0,0,1,.707-1,1.885,1.885,0,0,1,1.12-.295,2.059,2.059,0,0,1,1.3.472,1.41,1.41,0,0,1,.589,1.237,1.148,1.148,0,0,1-.059.413c-.059.118-.059.295-.118.471l-4.833,15.97a2.4,2.4,0,0,1-.884,1.238,2.175,2.175,0,0,1-1.355.412,2.606,2.606,0,0,1-1.414-.412,1.877,1.877,0,0,1-.884-1.3l-2.711-10.549-2.711,10.549a2.156,2.156,0,0,1-.943,1.3,3.009,3.009,0,0,1-1.3.412,2.253,2.253,0,0,1-2.3-1.709l-4.773-15.97a2.309,2.309,0,0,1-.118-.766,2.969,2.969,0,0,1,.707-1.356Zm-58.4,24.4H340.1a12.6,12.6,0,0,1,.766-1.12,10.654,10.654,0,0,1,3.418-2.888V235.26H257.479v29.466Z" transform="translate(6.948 6.948)" fill="#666"/>
        <path id="Path_3931" data-name="Path 3931" d="M293.881,263.538l1.532-1.532a7.558,7.558,0,0,1,9.96-.648l8.486,6.424,9.017-9.017a3.755,3.755,0,0,0-1.709-6.306l-44.022-11.786a3.811,3.811,0,0,0-4.656,4.656l11.786,44.022a3.76,3.76,0,0,0,6.306,1.709l9.017-9.016-6.424-8.486a7.632,7.632,0,0,1,.707-10.018Z" transform="translate(80.099 32.769)" fill="#666"/>
        <path id="Path_3932" data-name="Path 3932" d="M308.312,265.393l-26.7-20.214a2.165,2.165,0,0,0-2.888.177l-1.532,1.532a2.165,2.165,0,0,0-.177,2.888l20.213,26.7a.834.834,0,0,0,1.3.059l9.842-9.842a.836.836,0,0,0-.059-1.3Z" transform="translate(100.556 53.19)" fill="#666"/>
      </g>
      <g id="Group_834" data-name="Group 834" transform="translate(4361.452 6663.344)">
        <path id="Path_4317" data-name="Path 4317" d="M652.5,466.732a10.366,10.366,0,1,1,10.365-10.366A10.342,10.342,0,0,1,652.5,466.732Zm15.5-6.957h5.7a1.057,1.057,0,0,0,1.074-1.074v-4.576a1.057,1.057,0,0,0-1.074-1.074H668a16.444,16.444,0,0,0-2.148-5.183h0l4.015-4.015a1.1,1.1,0,0,0,0-1.541l-3.269-3.268a1.1,1.1,0,0,0-1.54,0l-4.016,4.015a15.835,15.835,0,0,0-5.183-2.148v-5.7a1.057,1.057,0,0,0-1.074-1.074h-4.576a1.056,1.056,0,0,0-1.073,1.074v5.7a16.436,16.436,0,0,0-5.183,2.148h0l-4.016-4.015a1.1,1.1,0,0,0-1.541,0l-3.268,3.268a1.1,1.1,0,0,0,0,1.541l4.016,4.015A15.838,15.838,0,0,0,637,453.051h-5.7a1.056,1.056,0,0,0-1.074,1.074V458.7a1.057,1.057,0,0,0,1.074,1.074H637a16.443,16.443,0,0,0,2.148,5.183h0l-4.016,4.015a1.1,1.1,0,0,0,0,1.541l3.268,3.269a1.1,1.1,0,0,0,1.541,0l4.016-4.016h0a15.837,15.837,0,0,0,5.183,2.148v5.7a1.056,1.056,0,0,0,1.073,1.074h4.576a1.057,1.057,0,0,0,1.074-1.074v-5.7a16.444,16.444,0,0,0,5.183-2.148l4.016,4.016a1.1,1.1,0,0,0,1.54,0l3.269-3.269a1.1,1.1,0,0,0,0-1.541l-4.015-4.015A14.887,14.887,0,0,0,668,459.775Z" transform="translate(18.934 26.199)" fill="#666"/>
        <path id="Path_4318" data-name="Path 4318" d="M697.781,478.829a.491.491,0,0,0,.467.373,19.14,19.14,0,0,0,6.21-37.307,11.917,11.917,0,0,0-11.206-7.8h-.42A21.695,21.695,0,0,0,655.477,444.6a19.134,19.134,0,1,0-11.066,34.6.454.454,0,0,0,.467-.374,5.42,5.42,0,0,1,5.183-3.922h0c.373-.934.42-.98.794-1.868a5.383,5.383,0,0,1,0-7.611l3.269-3.268a5.41,5.41,0,0,1,7.657,0c.934-.374.981-.42,1.868-.794h0a5.37,5.37,0,0,1,5.37-5.37h4.576a5.37,5.37,0,0,1,5.37,5.37v.093c.887.373.934.373,1.821.747a5.472,5.472,0,0,1,3.455-1.634,5.318,5.318,0,0,1,4.249,1.541l3.268,3.269a5.382,5.382,0,0,1,0,7.611,1.082,1.082,0,0,0,.747,1.868h.047a5.434,5.434,0,0,1,5.23,3.969Z" transform="translate(0.037)" fill="#666"/>
        <path id="Path_4319" data-name="Path 4319" d="M661.024,482.49a2.516,2.516,0,0,1,1.728-.7H684.37a2.412,2.412,0,0,1,2.428,2.428,2.6,2.6,0,0,1-.7,1.728,2.515,2.515,0,0,1-1.728.7H662.751a2.411,2.411,0,0,1-2.428-2.428,2.221,2.221,0,0,1,.7-1.728Zm35.58-5.136a1.4,1.4,0,0,1,2.8,0v13.728a1.4,1.4,0,1,1-2.8,0V477.354Zm6.864,0a1.4,1.4,0,1,1,2.8,0v13.728a1.4,1.4,0,1,1-2.8,0V477.354Zm6.817,0a1.4,1.4,0,1,1,2.8,0v13.728a1.4,1.4,0,1,1-2.8,0V477.354Zm-59.487,5.09a3.222,3.222,0,1,1,3.222-3.222,3.17,3.17,0,0,1-3.222,3.222Zm0,9.152a3.222,3.222,0,1,1,3.222-3.222A3.17,3.17,0,0,1,650.8,491.6Zm-8.919-9.152a3.222,3.222,0,1,1,3.222-3.222,3.17,3.17,0,0,1-3.222,3.222Zm0,9.152a3.222,3.222,0,1,1,3.222-3.222,3.17,3.17,0,0,1-3.222,3.222Zm-8.918-9.152a3.222,3.222,0,1,1,3.222-3.222,3.169,3.169,0,0,1-3.222,3.222Zm0,9.152a3.222,3.222,0,1,1,3.222-3.222,3.169,3.169,0,0,1-3.222,3.222ZM641.88,452a3.222,3.222,0,1,1,3.222-3.222A3.17,3.17,0,0,1,641.88,452Zm0,9.152a3.222,3.222,0,1,1,3.222-3.222,3.17,3.17,0,0,1-3.222,3.222ZM632.962,452a3.222,3.222,0,1,1,3.222-3.222A3.169,3.169,0,0,1,632.962,452Zm0,9.152a3.222,3.222,0,1,1,3.222-3.222,3.169,3.169,0,0,1-3.222,3.222ZM696.6,446.91a1.4,1.4,0,0,1,2.8,0v13.728a1.4,1.4,0,1,1-2.8,0V446.91Zm6.864,0a1.4,1.4,0,0,1,2.8,0v13.728a1.4,1.4,0,1,1-2.8,0V446.91Zm6.817,0a1.4,1.4,0,0,1,2.8,0v13.728a1.4,1.4,0,1,1-2.8,0V446.91ZM628.759,471.7a3.647,3.647,0,0,0-3.642,3.642v17.09a3.646,3.646,0,0,0,3.642,3.642h85.4a3.647,3.647,0,0,0,3.642-3.642v-17.09a3.647,3.647,0,0,0-3.642-3.642H681.988v-6.07H714.16a3.647,3.647,0,0,0,3.642-3.642V444.9a3.647,3.647,0,0,0-3.642-3.642H697.725a4.5,4.5,0,0,0-4.389,3.5,5.181,5.181,0,0,1-1.448,2.661l-3.268,3.269a5.369,5.369,0,0,1-3.829,1.587,5.156,5.156,0,0,1-3.082-.98,1.71,1.71,0,0,0-1.634-.187,1.211,1.211,0,0,0-.654.513,1.7,1.7,0,0,0-.327.794,5.419,5.419,0,0,1-5.323,4.482h-4.576a5.456,5.456,0,0,1-5.323-4.482,1.726,1.726,0,0,0-1.027-1.307,1.493,1.493,0,0,0-.654-.14,1.677,1.677,0,0,0-1.027.327,5.378,5.378,0,0,1-6.911-.607l-3.268-3.269a5.22,5.22,0,0,1-1.541-3.269,3.194,3.194,0,0,0-3.175-2.9H628.712a3.647,3.647,0,0,0-3.642,3.642v17.09a3.646,3.646,0,0,0,3.642,3.642h32.172v6.07Z" transform="translate(0 52.324)" fill="#666"/>
      </g>
      <g id="Group_858" data-name="Group 858" transform="translate(4760.624 6884.458) rotate(-30)">
        <path id="Path_4525" data-name="Path 4525" d="M867.366,615.338a2.842,2.842,0,1,1,2.647-2.836,2.842,2.842,0,0,1-2.647,2.836ZM922.1,530.03H891.328a14.459,14.459,0,0,1,4.632,6.239h27.412V605.6H811.455V536.269h39.511a20.508,20.508,0,0,1,5.341-6.239H812.731a6.707,6.707,0,0,0-6.711,6.711v74.532a7.281,7.281,0,0,0,7.278,7.278h42.914a3.591,3.591,0,0,1,3.592,3.592v.993h-4.159a5.184,5.184,0,0,0-5.2,5.2v2.978h34.029v-2.978a5.184,5.184,0,0,0-5.2-5.2h-4.159v-.993a3.59,3.59,0,0,1,3.592-3.592h42.914a7.282,7.282,0,0,0,7.278-7.278V536.741a6.882,6.882,0,0,0-6.806-6.711Z" transform="translate(0 13.049)" fill="#666"/>
        <path id="Path_4526" data-name="Path 4526" d="M823.929,537.8a1.745,1.745,0,0,0-1.749,1.749v7.42A4.841,4.841,0,0,0,827,551.79h13.092a3.516,3.516,0,0,0,2.978,1.7,3.45,3.45,0,1,0,0-6.9,3.415,3.415,0,0,0-2.978,1.7H827a1.271,1.271,0,0,1-1.276-1.276V539.6a1.766,1.766,0,0,0-1.8-1.8Z" transform="translate(60.215 42.001)" fill="#666"/>
        <path id="Path_4527" data-name="Path 4527" d="M823.44,537.8a1.745,1.745,0,0,0-1.749,1.749v18.2a3.515,3.515,0,0,0-1.7,2.978,3.45,3.45,0,0,0,6.9,0,3.415,3.415,0,0,0-1.7-2.978v-18.2a1.688,1.688,0,0,0-1.748-1.749Z" transform="translate(52.055 42.001)" fill="#666"/>
        <path id="Path_4528" data-name="Path 4528" d="M821.72,537.8a1.744,1.744,0,0,0-1.748,1.749v18.2a3.516,3.516,0,0,0-1.7,2.978,3.45,3.45,0,0,0,6.9,0,3.415,3.415,0,0,0-1.7-2.978v-18.2a1.716,1.716,0,0,0-1.749-1.749Z" transform="translate(45.646 42.001)" fill="#666"/>
        <path id="Path_4529" data-name="Path 4529" d="M831.335,539.586v7.42a1.271,1.271,0,0,1-1.276,1.276H816.968a3.517,3.517,0,0,0-2.978-1.7,3.45,3.45,0,0,0,0,6.9,3.415,3.415,0,0,0,2.978-1.7h13.092a4.841,4.841,0,0,0,4.82-4.821v-7.42a1.744,1.744,0,0,0-1.748-1.749,1.826,1.826,0,0,0-1.8,1.8Z" transform="translate(16.842 41.964)" fill="#666"/>
        <path id="Path_4530" data-name="Path 4530" d="M819.87,537.8a1.744,1.744,0,0,0-1.748,1.749v18.2a3.516,3.516,0,0,0-1.7,2.978,3.45,3.45,0,0,0,6.9,0,3.415,3.415,0,0,0-1.7-2.978v-18.2a1.745,1.745,0,0,0-1.749-1.749Z" transform="translate(38.752 42.001)" fill="#666"/>
        <path id="Path_4531" data-name="Path 4531" d="M864.568,530.84a7.687,7.687,0,0,1-2.221,3.828l-16.683,15.786a5.62,5.62,0,0,1-3.781,1.512h0a5.47,5.47,0,0,1-3.97-1.7,5.555,5.555,0,0,1-.567-6.853l4.254-6.239a7.935,7.935,0,0,1-7.562-6.239,16.757,16.757,0,0,0-5.2,8.035,11.79,11.79,0,0,0-4.3-.8,11.958,11.958,0,0,0,0,23.915H861.26a11.947,11.947,0,0,0,6.428-22.024,8.289,8.289,0,0,0,.189-1.891,9.419,9.419,0,0,0-3.309-7.326Z" transform="translate(24.444 16.067)" fill="#666"/>
        <path id="Path_4532" data-name="Path 4532" d="M834.619,527.2a3.5,3.5,0,0,0-4.916.8l-11.012,15.171a3.414,3.414,0,0,0-.662,2.08,3.54,3.54,0,0,0,3.544,3.545h8.176l-8.98,13.139a1.067,1.067,0,0,0,.094,1.323,1.1,1.1,0,0,0,1.512.047l16.684-15.786a3.376,3.376,0,0,0-2.316-5.813h-8.271l6.947-9.594a3.586,3.586,0,0,0-.8-4.915Z" transform="translate(44.751 0)" fill="#666"/>
      </g>
      <g id="Group_868" data-name="Group 868" transform="translate(5828.741 6220.718)">
        <path id="Path_4597" data-name="Path 4597" d="M348,642.514c0,6.6,23.7,11.9,52.908,11.9s52.908-5.353,52.908-11.9V630.82c-3.69,2.7-9.979,4.833-18.918,6.445a215.092,215.092,0,0,1-67.98,0c-8.939-1.611-15.228-3.742-18.918-6.445v11.694Z" transform="translate(0 15.152)" fill="#666"/>
        <path id="Path_4598" data-name="Path 4598" d="M348,646.334c0,6.6,23.7,11.9,52.908,11.9,3.846,0,7.588-.1,11.174-.26a39.432,39.432,0,0,1,11.642-15.332,224.862,224.862,0,0,1-22.816,1.143,195.894,195.894,0,0,1-33.99-2.7c-8.939-1.611-15.228-3.742-18.918-6.445v11.694Z" transform="translate(0 31.186)" fill="#666"/>
        <path id="Path_4599" data-name="Path 4599" d="M348,650.206c0,6.6,23.7,11.9,52.908,11.9,2.858,0,5.613-.052,8.316-.156a45.147,45.147,0,0,1-.26-4.625,38.667,38.667,0,0,1,1.247-9.875c-3.066.1-6.133.156-9.3.156a195.864,195.864,0,0,1-33.99-2.7c-8.939-1.611-15.228-3.742-18.918-6.445v11.746Z" transform="translate(0 47.219)" fill="#666"/>
        <path id="Path_4600" data-name="Path 4600" d="M400.908,651.013a191.135,191.135,0,0,0,33.262-2.651c12.005-2.183,19.646-5.509,19.646-9.251,0-6.6-23.7-11.9-52.908-11.9S348,632.563,348,639.112c0,3.742,7.692,7.068,19.646,9.251a190.7,190.7,0,0,0,33.263,2.651Z" transform="translate(0 0)" fill="#666"/>
        <path id="Path_4601" data-name="Path 4601" d="M379.181,642.837a8.059,8.059,0,0,0-2.495-1.663,7.565,7.565,0,0,0-8.524,1.715,8.119,8.119,0,0,0-2.183,5.561,8.187,8.187,0,0,0,.572,3.014,7.99,7.99,0,0,0,1.611,2.443,7.714,7.714,0,0,0,5.509,2.287,13.736,13.736,0,0,0,1.455-.1,5.124,5.124,0,0,0,1.455-.416l-.987-.935a3.129,3.129,0,0,1-.572-.728,1.738,1.738,0,0,1-.156-.779,2.161,2.161,0,0,1,.676-1.611,2.274,2.274,0,0,1,1.663-.676,2.245,2.245,0,0,1,.728.208,2.269,2.269,0,0,1,.779.52l1.2,1.3a7.753,7.753,0,0,0,.884-7.64,6.9,6.9,0,0,0-1.612-2.494Z" transform="translate(75.467 55.992)" fill="#666"/>
        <path id="Path_4602" data-name="Path 4602" d="M411.221,681.022a2.116,2.116,0,0,1-.624-1.559v-18.97a2.157,2.157,0,1,1,4.314,0v16.735H421.2a2.132,2.132,0,0,1,2.183,2.183,2,2,0,0,1-.624,1.507,2.116,2.116,0,0,1-1.559.623h-8.471a1.663,1.663,0,0,1-1.507-.519Zm-3.43-6.808a11.712,11.712,0,0,1-2.079,3.534l1.2,1.2a2.028,2.028,0,0,1,.52.831c.052.26.1.52.156.727a2.021,2.021,0,0,1-.676,1.507,2.251,2.251,0,0,1-1.559.676,1.967,1.967,0,0,1-1.455-.623l-1.455-1.4a15.6,15.6,0,0,1-2.859,1.143,10.845,10.845,0,0,1-3.17.416,12.446,12.446,0,0,1-4.782-.935,11.8,11.8,0,0,1-3.9-2.547,13.36,13.36,0,0,1-2.651-3.846,12.037,12.037,0,0,1-.987-4.73,11.748,11.748,0,0,1,.935-4.678,12.346,12.346,0,0,1,2.547-3.9,12.559,12.559,0,0,1,3.846-2.7,11.26,11.26,0,0,1,4.782-.987,11.736,11.736,0,0,1,4.885.987,12.01,12.01,0,0,1,3.95,2.651,11.935,11.935,0,0,1,3.534,8.575,14.76,14.76,0,0,1-.78,4.107Zm-26.194,3.9a6.415,6.415,0,0,1-1.663,2.183,6.685,6.685,0,0,1-2.287,1.3,8.777,8.777,0,0,1-2.6.416,7.841,7.841,0,0,1-2.91-.572,7.372,7.372,0,0,1-2.391-1.455,6.428,6.428,0,0,1-1.611-1.975,4.367,4.367,0,0,1-.624-2.183,1.878,1.878,0,0,1,.676-1.611,2.262,2.262,0,0,1,1.507-.572,2.577,2.577,0,0,1,1.351.416,1.863,1.863,0,0,1,.78,1.3,2.293,2.293,0,0,0,1.091,1.663,3.843,3.843,0,0,0,2.183.624,3.154,3.154,0,0,0,1.923-.624,2.315,2.315,0,0,0,.884-1.975,3.084,3.084,0,0,0-.468-1.767,4.586,4.586,0,0,0-1.247-1.2,9.993,9.993,0,0,0-1.611-.935,10.488,10.488,0,0,1-1.663-.935,10.884,10.884,0,0,1-1.507-1.2,9.027,9.027,0,0,1-1.3-1.507,6.432,6.432,0,0,1-.936-1.767,6.328,6.328,0,0,1-.364-1.975,5.8,5.8,0,0,1,.572-2.6,6.479,6.479,0,0,1,1.455-1.871,6.012,6.012,0,0,1,2.027-1.143,6.708,6.708,0,0,1,2.234-.364,6.928,6.928,0,0,1,2.235.364,6.629,6.629,0,0,1,1.975,1.092,6.7,6.7,0,0,1,1.455,1.715,4.557,4.557,0,0,1,.572,2.183,2.238,2.238,0,0,1-.624,1.611,1.977,1.977,0,0,1-1.559.675,2.326,2.326,0,0,1-1.455-.468,2,2,0,0,1-.676-1.559,1.22,1.22,0,0,0-.676-.987,2.735,2.735,0,0,0-1.2-.312,1.7,1.7,0,0,0-1.351.468,1.528,1.528,0,0,0-.468,1.143,2.364,2.364,0,0,0,.416,1.4,3.773,3.773,0,0,0,1.04.988c.416.26.883.52,1.351.78a11.133,11.133,0,0,1,1.351.728,13.04,13.04,0,0,1,1.923,1.4,9.271,9.271,0,0,1,1.559,1.663,8.96,8.96,0,0,1,1.04,1.975,6.311,6.311,0,0,1,.364,2.235,9.168,9.168,0,0,1-.78,3.221Zm48.646-7.9a34.822,34.822,0,1,0-34.822,34.822,34.824,34.824,0,0,0,34.822-34.822Z" transform="translate(52.886 34.334)" fill="#666"/>
      </g>
      <g id="Group_876" data-name="Group 876" transform="translate(2809.198 6502.798)">
        <path id="Path_4663" data-name="Path 4663" d="M718.225,641.593a1.247,1.247,0,0,1,1.268-1.268h8.765a1.247,1.247,0,0,1,1.268,1.268v2.591a1.247,1.247,0,0,1-1.268,1.268h-8.765a1.247,1.247,0,0,1-1.268-1.268v-2.591Zm13.01,22.878a.929.929,0,0,1,.937-.937H752.79a.929.929,0,0,1,.937.937v8.214a.929.929,0,0,1-.937.937H732.172a.929.929,0,0,1-.937-.937v-8.214Zm0-13.4a.929.929,0,0,1,.937-.937h8.214a.929.929,0,0,1,.937.937v8.214a.929.929,0,0,1-.937.937h-8.214a.929.929,0,0,1-.937-.937v-8.214Zm2.536-9.482a1.247,1.247,0,0,1,1.268-1.268H743.8a1.247,1.247,0,0,1,1.268,1.268v2.591a1.247,1.247,0,0,1-1.268,1.268h-8.765a1.247,1.247,0,0,1-1.268-1.268v-2.591Zm15.546,0a1.247,1.247,0,0,1,1.268-1.268h8.766a1.247,1.247,0,0,1,1.268,1.268v2.591a1.247,1.247,0,0,1-1.268,1.268h-8.766a1.247,1.247,0,0,1-1.268-1.268v-2.591Zm15.546,0a1.247,1.247,0,0,1,1.268-1.268H774.9a1.247,1.247,0,0,1,1.268,1.268v2.591a1.247,1.247,0,0,1-1.268,1.268h-8.765a1.247,1.247,0,0,1-1.268-1.268v-2.591Zm13.782,9.482v8.214a.93.93,0,0,1-.937.937h-8.214a.93.93,0,0,1-.937-.937v-8.214a.93.93,0,0,1,.937-.937h8.214a.929.929,0,0,1,.937.937Zm1.764-9.482a1.247,1.247,0,0,1,1.268-1.268h8.766a1.247,1.247,0,0,1,1.268,1.268v2.591a1.247,1.247,0,0,1-1.268,1.268h-8.766a1.247,1.247,0,0,1-1.268-1.268v-2.591Zm12.955,36.219a.929.929,0,0,1,.937-.937h8.214a.929.929,0,0,1,.937.937v8.214a.929.929,0,0,1-.937.937H794.3a.929.929,0,0,1-.937-.937v-8.214Zm0-13.341a.929.929,0,0,1,.937-.937h8.214a.929.929,0,0,1,.937.937v8.214a.929.929,0,0,1-.937.937H794.3a.929.929,0,0,1-.937-.937v-8.214Zm0-13.4a.93.93,0,0,1,.937-.937h8.214a.93.93,0,0,1,.937.937v8.214a.93.93,0,0,1-.937.937H794.3a.93.93,0,0,1-.937-.937v-8.214Zm2.591-9.482a1.247,1.247,0,0,1,1.268-1.268h8.766a1.247,1.247,0,0,1,1.267,1.268v2.591a1.247,1.247,0,0,1-1.267,1.268h-8.766a1.247,1.247,0,0,1-1.268-1.268v-2.591Zm15.546,0a1.247,1.247,0,0,1,1.268-1.268h8.766a1.247,1.247,0,0,1,1.268,1.268v2.591a1.247,1.247,0,0,1-1.268,1.268H812.77a1.247,1.247,0,0,1-1.268-1.268v-2.591Zm15.547,0a1.247,1.247,0,0,1,1.268-1.268h8.766a1.247,1.247,0,0,1,1.268,1.268v2.591a1.247,1.247,0,0,1-1.268,1.268h-8.766a1.247,1.247,0,0,1-1.268-1.268v-2.591Zm13.727,9.482v8.214a.93.93,0,0,1-.937.937h-8.214a.93.93,0,0,1-.937-.937v-8.214a.929.929,0,0,1,.937-.937h8.214a.929.929,0,0,1,.937.937Zm1.819-9.482a1.247,1.247,0,0,1,1.267-1.268h8.766a1.247,1.247,0,0,1,1.268,1.268v2.591a1.247,1.247,0,0,1-1.268,1.268h-8.766a1.247,1.247,0,0,1-1.267-1.268v-2.591Zm10.64,17.7a.93.93,0,0,1-.937.937h-8.214a.93.93,0,0,1-.937-.937v-8.214a.93.93,0,0,1,.937-.937H852.3a.929.929,0,0,1,.937.937v8.214Zm0,18.523v8.214a.929.929,0,0,1-.937.937H831.625a.929.929,0,0,1-.937-.937v-8.214a.929.929,0,0,1,.937-.937h11.522v-12.4a.929.929,0,0,1,.937-.937H852.3a.929.929,0,0,1,.937.937v13.341Zm0,21.556a.929.929,0,0,1-.937.937h-8.214a.93.93,0,0,1-.937-.937v-8.214a.929.929,0,0,1,.937-.937H852.3a.929.929,0,0,1,.937.937v8.214ZM819.22,676.875h8.214a.929.929,0,0,1,.937.937v8.214a.929.929,0,0,1-.937.937H819.22a.929.929,0,0,1-.937-.937v-8.214a.868.868,0,0,1,.937-.937Zm-.992-17.586v-8.214a.929.929,0,0,1,.937-.937h8.214a.929.929,0,0,1,.937.937v8.214a.929.929,0,0,1-.937.937h-8.214a.966.966,0,0,1-.937-.937Zm.992,4.19h20.618a.929.929,0,0,1,.937.937v8.214a.929.929,0,0,1-.937.937H819.22a.929.929,0,0,1-.937-.937v-8.214a.9.9,0,0,1,.937-.937Zm21.556,35.889a.929.929,0,0,1-.937.937H819.221a.929.929,0,0,1-.937-.937v-8.214a.929.929,0,0,1,.937-.937h20.618a.929.929,0,0,1,.937.937v8.214Zm-24.863-40.079a.93.93,0,0,1-.937.937h-8.214a.929.929,0,0,1-.937-.937v-8.214a.929.929,0,0,1,.937-.937h8.214a.929.929,0,0,1,.937.937v8.214Zm0,13.341a.929.929,0,0,1-.937.937h-8.214a.929.929,0,0,1-.937-.937v-8.214a.929.929,0,0,1,.937-.937h8.214a.929.929,0,0,1,.937.937v8.214Zm0,13.4a.929.929,0,0,1-.937.937h-8.214a.929.929,0,0,1-.937-.937v-8.214a.929.929,0,0,1,.937-.937h8.214a.929.929,0,0,1,.937.937v8.214Zm0,13.341a.929.929,0,0,1-.937.937h-8.214a.929.929,0,0,1-.937-.937v-8.214a.929.929,0,0,1,.937-.937h8.214a.929.929,0,0,1,.937.937v8.214ZM781.9,676.875h8.214a.929.929,0,0,1,.937.937v8.214a.929.929,0,0,1-.937.937H781.9a.929.929,0,0,1-.937-.937v-8.214a.929.929,0,0,1,.937-.937Zm-.938-17.586v-8.214a.93.93,0,0,1,.937-.937h8.214a.93.93,0,0,1,.937.937v8.214a.93.93,0,0,1-.937.937H781.9a.967.967,0,0,1-.937-.937Zm.938,4.19h8.214a.929.929,0,0,1,.937.937v8.214a.929.929,0,0,1-.937.937H781.9a.93.93,0,0,1-.937-.937v-8.214a.966.966,0,0,1,.937-.937Zm-13.4,9.151v-8.214a.93.93,0,0,1,.937-.937h8.214a.93.93,0,0,1,.937.937v8.214a.929.929,0,0,1-.937.937h-8.214a.929.929,0,0,1-.937-.937Zm.993,4.245h8.214a.929.929,0,0,1,.937.937v8.214a.929.929,0,0,1-.937.937h-8.214a.929.929,0,0,1-.937-.937v-8.214a.868.868,0,0,1,.937-.937Zm-12.459,0h8.214a.929.929,0,0,1,.937.937v8.214a.929.929,0,0,1-.937.937h-8.214a.929.929,0,0,1-.937-.937v-8.214a.929.929,0,0,1,.937-.937Zm-.937-17.586v-8.214a.929.929,0,0,1,.937-.937h8.214a.929.929,0,0,1,.937.937v8.214a.929.929,0,0,1-.937.937h-8.214a.966.966,0,0,1-.937-.937Zm.937,4.19h8.214a.929.929,0,0,1,.937.937v8.214a.929.929,0,0,1-.937.937h-8.214a.929.929,0,0,1-.937-.937v-8.214a.965.965,0,0,1,.937-.937Zm46.474,35.889a.929.929,0,0,1-.937.937H757.035a.929.929,0,0,1-.937-.937v-8.214a.929.929,0,0,1,.937-.937h45.536a.929.929,0,0,1,.937.937v8.214Zm-49.727-40.079a.929.929,0,0,1-.937.937h-8.214a.929.929,0,0,1-.937-.937v-8.214a.929.929,0,0,1,.937-.937h8.214a.929.929,0,0,1,.937.937v8.214Zm0,26.738a.929.929,0,0,1-.937.937h-8.214a.929.929,0,0,1-.937-.937v-8.214a.929.929,0,0,1,.937-.937h8.214a.929.929,0,0,1,.937.937v8.214Zm0,13.341a.929.929,0,0,1-.937.937h-8.214a.929.929,0,0,1-.937-.937v-8.214a.929.929,0,0,1,.937-.937h8.214a.929.929,0,0,1,.937.937v8.214Zm-35.007-40.079v-8.214a.93.93,0,0,1,.937-.937h8.214a.93.93,0,0,1,.937.937v8.214a.929.929,0,0,1-.937.937h-8.214a.967.967,0,0,1-.937-.937Zm.993,4.19h8.214a.929.929,0,0,1,.937.937v8.214a.929.929,0,0,1-.937.937h-8.214a.93.93,0,0,1-.937-.937v-8.214a.9.9,0,0,1,.937-.937Zm21.555,22.548a.929.929,0,0,1-.937.937H719.769a.929.929,0,0,1-.937-.937v-8.214a.929.929,0,0,1,.937-.937h20.618a.929.929,0,0,1,.937.937v8.214Zm0,13.341a.929.929,0,0,1-.937.937h-8.214a.929.929,0,0,1-.937-.937v-8.214a.929.929,0,0,1,.937-.937h8.214a.929.929,0,0,1,.937.937v8.214Zm-12.4,0a.929.929,0,0,1-.937.937h-8.214a.929.929,0,0,1-.937-.937v-8.214a.929.929,0,0,1,.937-.937h8.214a.929.929,0,0,1,.937.937v8.214Zm-10.53,5.457H852.629a4.306,4.306,0,0,0,4.3-4.3V640.49a4.306,4.306,0,0,0-4.3-4.3H718.39a4.306,4.306,0,0,0-4.3,4.3v60.035a4.306,4.306,0,0,0,4.3,4.3Z" transform="translate(0.406 39.849)" fill="#4b4b4b"/>
        <path id="Path_4664" data-name="Path 4664" d="M754.1,631.215h-4.576a2.17,2.17,0,0,0-1.6.716,3.008,3.008,0,0,1-2.205,1.048h-8.159a2.747,2.747,0,0,1-2.206-1.048,2.066,2.066,0,0,0-1.654-.772h-.5v17.917a54.682,54.682,0,0,0,9.372-2.536A17.366,17.366,0,0,0,754.1,631.215Z" transform="translate(86.692 17.149)" fill="#4b4b4b"/>
        <path id="Path_4665" data-name="Path 4665" d="M733.22,645.347h.716a1.84,1.84,0,0,0,1.378-.661,2.821,2.821,0,0,1,2.26-1.1h8.1a2.988,2.988,0,0,1,2.26,1.1,1.673,1.673,0,0,0,1.379.661h4.8a17.5,17.5,0,0,0-11.632-15.326l-.661-.22a52.845,52.845,0,0,0-8.545-2.26v17.807Z" transform="translate(86.738 0.813)" fill="#4b4b4b"/>
        <path id="Path_4666" data-name="Path 4666" d="M727.68,636.07a11.3,11.3,0,0,0,16.649-8.711H739.7a12.668,12.668,0,0,0-12.018,8.711Z" transform="translate(61.736 0)" fill="#4b4b4b"/>
        <path id="Path_4667" data-name="Path 4667" d="M733.138,632.75a11.457,11.457,0,0,0-5.458,1.378,12.616,12.616,0,0,0,12.018,8.71h4.631a11.205,11.205,0,0,0-11.191-10.089Z" transform="translate(61.736 24.325)" fill="#4b4b4b"/>
        <path id="Path_4668" data-name="Path 4668" d="M716.536,664.627h43.827a8.752,8.752,0,0,0,8.766-8.766v-2.37a3.694,3.694,0,0,1,3.693-3.693H788.81v4.686a11.063,11.063,0,0,0,.055,1.378,13.826,13.826,0,0,1,19.791,11.246h1.323a57.252,57.252,0,0,0,8.1-.606V627.966a54.271,54.271,0,0,0-8.435-.607h-.992a13.826,13.826,0,0,1-19.792,11.247,11.486,11.486,0,0,0-.055,1.378v4.686H772.822a8.753,8.753,0,0,0-8.766,8.766v2.37a3.694,3.694,0,0,1-3.693,3.694H716.536a2.564,2.564,0,0,0,0,5.127Z" transform="translate(0 0)" fill="#4b4b4b"/>
      </g>
      <g id="Group_878" data-name="Group 878" transform="translate(4522.057 6805.986) rotate(-14)">
        <path id="Path_4685" data-name="Path 4685" d="M827.864,646.2h14.216l-18.11-18.11v14.216a3.865,3.865,0,0,0,3.894,3.894Z" transform="translate(61.131 10.9)" fill="#3d7e9b"/>
        <path id="Path_4686" data-name="Path 4686" d="M865.815,625H810.579a3.942,3.942,0,0,0-3.939,3.939v95.893a3.942,3.942,0,0,0,3.939,3.939h5.116V638.854a3.942,3.942,0,0,1,3.939-3.939h46.181V625Z" transform="translate(0 0)" fill="#3d7e9b"/>
        <path id="Path_4687" data-name="Path 4687" d="M832.956,655.028a2.582,2.582,0,0,1-2.128,4.029,2.486,2.486,0,0,1-2.128-1.132l-9.01-10.594,9.01-10.594a2.544,2.544,0,0,1,2.128-1.132,2.578,2.578,0,0,1,2.581,2.581,2.491,2.491,0,0,1-.453,1.449l-7.108,7.7,7.108,7.7Zm14.579-15.393a2.6,2.6,0,0,1,2.128-4.029,2.487,2.487,0,0,1,2.128,1.132l9.01,10.594-9.01,10.594a2.544,2.544,0,0,1-2.128,1.132,2.578,2.578,0,0,1-2.581-2.581,2.491,2.491,0,0,1,.453-1.449l7.108-7.7-7.108-7.7Zm44.777,88.241v-24.63H854.779a7.98,7.98,0,0,1-7.969-7.968V675.764a7.98,7.98,0,0,1,7.969-7.968h37.533V651.5h-17.2a6.212,6.212,0,0,1-6.2-6.2v-17.2H813.669a3.942,3.942,0,0,0-3.939,3.939v95.892a3.942,3.942,0,0,0,3.939,3.939h74.749a4,4,0,0,0,3.894-3.984Z" transform="translate(10.9 10.9)" fill="#3d7e9b"/>
        <path id="Path_4688" data-name="Path 4688" d="M860.357,658.979a6.491,6.491,0,0,1-3.8,3.35,7.761,7.761,0,0,1-2.49.408,6.985,6.985,0,0,1-2.762-.543,8.593,8.593,0,0,1-2.264-1.358,6.193,6.193,0,0,1-1.54-1.9,4.536,4.536,0,0,1-.589-2.083,1.943,1.943,0,0,1,.634-1.54,2.136,2.136,0,0,1,1.449-.543,2.435,2.435,0,0,1,1.268.362,2.1,2.1,0,0,1,.77,1.268,2.272,2.272,0,0,0,1.041,1.584,3.834,3.834,0,0,0,2.037.589,3.022,3.022,0,0,0,1.856-.589,2.189,2.189,0,0,0,.815-1.856,2.81,2.81,0,0,0-.452-1.675,4.026,4.026,0,0,0-1.177-1.132,17.2,17.2,0,0,0-1.54-.906,10.963,10.963,0,0,1-1.585-.905,15.812,15.812,0,0,1-1.449-1.132,9.7,9.7,0,0,1-1.268-1.449,8.553,8.553,0,0,1-.905-1.675,5.243,5.243,0,0,1-.317-1.9,5.452,5.452,0,0,1,.543-2.49,4.971,4.971,0,0,1,1.4-1.766,6.679,6.679,0,0,1,1.9-1.086,7,7,0,0,1,2.128-.362,7.238,7.238,0,0,1,2.128.362,5.546,5.546,0,0,1,1.9,1.041,5.928,5.928,0,0,1,1.358,1.63,4.085,4.085,0,0,1,.543,2.083,2.118,2.118,0,0,1-.589,1.54,1.894,1.894,0,0,1-1.494.634,1.975,1.975,0,0,1-1.358-.453,2.189,2.189,0,0,1-.679-1.449,1.211,1.211,0,0,0-.679-.951,2.266,2.266,0,0,0-1.132-.317,1.719,1.719,0,0,0-1.313.453,1.671,1.671,0,0,0-.453,1.086,2.522,2.522,0,0,0,.362,1.358,4,4,0,0,0,1,.951,9.035,9.035,0,0,0,1.313.724c.453.226.906.453,1.313.679a13.2,13.2,0,0,1,1.811,1.313,9.709,9.709,0,0,1,1.494,1.584,8.188,8.188,0,0,1,1,1.856,6.558,6.558,0,0,1,.363,2.128,7.6,7.6,0,0,1-.588,3.079Zm-15.439-2.988a6.557,6.557,0,0,1-.543,2.671,7.926,7.926,0,0,1-1.449,2.173,7.024,7.024,0,0,1-2.173,1.449,6.552,6.552,0,0,1-2.671.543,6.769,6.769,0,0,1-2.716-.543,6.661,6.661,0,0,1-3.622-3.622,6.553,6.553,0,0,1-.543-2.671,2.06,2.06,0,1,1,4.12,0,2.607,2.607,0,0,0,.815,1.9,2.561,2.561,0,0,0,1.9.769,2.777,2.777,0,0,0,1.947-.769,2.563,2.563,0,0,0,.769-1.9V642.363c0-1.449.679-2.219,2.083-2.219,1.358,0,2.037.724,2.037,2.219V655.99Zm29.067,8.059a3.731,3.731,0,0,0,1.494-2.988V641.548a3.749,3.749,0,0,0-3.758-3.758H822.6a3.749,3.749,0,0,0-3.758,3.758v19.514a3.749,3.749,0,0,0,3.758,3.758h49.124a3.513,3.513,0,0,0,2.264-.77Z" transform="translate(43.036 45.117)" fill="#3d7e9b"/>
      </g>
      <g id="Group_998" data-name="Group 998" transform="matrix(0.966, -0.259, 0.259, 0.966, 3925.798, 7165.335)">
        <path id="Path_5764" data-name="Path 5764" d="M458.907,233.41a1.9,1.9,0,0,0,.484,1.842Z" transform="translate(135.312 1.392)" fill="#3d7e9b"/>
        <path id="Path_5765" data-name="Path 5765" d="M466.794,239.67a13.864,13.864,0,1,0,13.864,13.864,13.861,13.861,0,0,0-13.864-13.864Z" transform="translate(83.99 55.824)" fill="#3d7e9b"/>
        <path id="Path_5766" data-name="Path 5766" d="M462.075,267.408a13.864,13.864,0,1,0-13.864-13.864,13.861,13.861,0,0,0,13.864,13.864Z" transform="translate(42.949 55.911)" fill="#3d7e9b"/>
        <path id="Path_5767" data-name="Path 5767" d="M541.089,280.466a4.751,4.751,0,1,1,4.75-4.751,4.758,4.758,0,0,1-4.75,4.751Zm-25.11-14.155a3.684,3.684,0,1,1,0-7.368h23.947a3.684,3.684,0,1,1,0,7.368ZM527.9,291.518a6.5,6.5,0,1,1,6.5-6.5,6.5,6.5,0,0,1-6.5,6.5Zm-13.767-11.052a4.751,4.751,0,1,1,4.751-4.751,4.758,4.758,0,0,1-4.751,4.751Zm49.349-46.633a15.049,15.049,0,0,0-8.338,7.077A20.636,20.636,0,0,1,537.6,250.993H518.209a20.393,20.393,0,0,1-17.548-10.083,15.052,15.052,0,0,0-8.338-7.077c-14.252-4.46-33.739,17.16-43.531,48.379s-6.2,60.11,7.95,64.667c10.083,3.2,22.88-6.787,32.963-24.044a20.154,20.154,0,0,1-5.041-13.476,20.472,20.472,0,0,1,40.719-3.005h5.332a20.472,20.472,0,1,1,35.678,16.482c10.083,17.257,22.784,27.146,32.963,24.044,14.252-4.46,17.839-33.448,7.95-64.667-9.986-31.218-29.57-52.838-43.822-48.379Z" transform="translate(0 0)" fill="#3d7e9b"/>
      </g>
      <text id="Hello" transform="translate(3742 7956)" fill="#292929" font-size="1000" font-family="TwCenMT-Regular, Tw Cen MT" letter-spacing="-0.05em"><tspan x="0" y="0">Hello</tspan></text>
      <text id="I_M_GEORGE_MISAN_I_DESIGN_CODE." data-name="I&apos;M GEORGE MISAN
I DESIGN &amp; CODE." transform="translate(3341 6764)" fill="#5ac8fa" font-size="125" font-family="OCRAExtended, OCR A"><tspan x="0" y="0">I&apos;M GEORGE MISAN</tspan><tspan x="0" y="159">I DESIGN &amp; CODE.</tspan></text>
      <g id="NewGroup1-24" transform="translate(3464.84 6581.767)">
        <g id="Group_624" data-name="Group 624" transform="translate(537.66 427)">
          <path id="Path_2249" data-name="Path 2249" d="M647.2,432.941A5.936,5.936,0,0,0,641.256,427H543.6a5.936,5.936,0,0,0-5.94,5.941v5.168H647.149v-5.168Z" transform="translate(-537.66 -427)" fill="#666"/>
          <path id="Path_2250" data-name="Path 2250" d="M537.66,439.946H647.2V430.48H537.66Z" transform="translate(-537.66 -413.673)" fill="#666"/>
          <path id="Path_2251" data-name="Path 2251" d="M589.79,433.63H552.65v16.421h9.08a7.77,7.77,0,0,1,7.776,7.776v17.725a7.77,7.77,0,0,1-7.776,7.776h-9.08v25.79h37.14V433.63Z" transform="translate(-480.253 -401.609)" fill="#666"/>
          <path id="Path_2252" data-name="Path 2252" d="M647.159,456.825V450.45H537.67v6.375a5.936,5.936,0,0,0,5.94,5.941h97.656a5.926,5.926,0,0,0,5.893-5.941Z" transform="translate(-537.621 -337.194)" fill="#666"/>
          <path id="Path_2253" data-name="Path 2253" d="M537.66,463.815h20.285v-5.989a7.77,7.77,0,0,1,7.776-7.776h38.541V433.63h-66.6v30.185Z" transform="translate(-537.66 -401.609)" fill="#666"/>
          <path id="Path_2254" data-name="Path 2254" d="M537.66,480.625h66.6v-25.79H565.72a7.771,7.771,0,0,1-7.776-7.776V441.07H537.66v39.555Z" transform="translate(-537.66 -373.116)" fill="#666"/>
          <path id="Path_2255" data-name="Path 2255" d="M599.285,454.456A4.91,4.91,0,0,1,598.223,456a5.863,5.863,0,0,1-1.546,1.063,4.977,4.977,0,0,1-3.96-.048,5.41,5.41,0,0,1-1.449-.966,4.272,4.272,0,0,1-.821-1.159,3.215,3.215,0,0,1-.241-.918,1.384,1.384,0,0,1,.386-1.014,1.315,1.315,0,0,1,.966-.338,1.11,1.11,0,0,1,.676.193,1.294,1.294,0,0,1,.483.628,2.992,2.992,0,0,0,.821,1.063,2.152,2.152,0,0,0,1.256.386,2.28,2.28,0,0,0,2.077-1.4,1.957,1.957,0,0,0,.193-.917,1.9,1.9,0,0,0-.193-.869,2.709,2.709,0,0,0-.483-.724,1.915,1.915,0,0,0-.724-.483,1.894,1.894,0,0,0-.869-.193,1.915,1.915,0,0,0-.966.193,3.09,3.09,0,0,0-.676.386c-.193.145-.387.242-.58.386a1.372,1.372,0,0,1-.628.193,1.28,1.28,0,0,1-1.449-1.449v-.241a.613.613,0,0,1,.048-.29l.531-4.685a1.333,1.333,0,0,1,1.5-1.352h4.878a1.3,1.3,0,1,1,0,2.608h-3.864l-.29,2.415a3.137,3.137,0,0,1,1.062-.531,4.98,4.98,0,0,1,1.256-.145,3.534,3.534,0,0,1,1.594.386,4.519,4.519,0,0,1,1.3,1.063,4.418,4.418,0,0,1,.869,1.546,5.924,5.924,0,0,1,.29,1.884,4.771,4.771,0,0,1-.387,1.787Zm-10.046,2.318a1.32,1.32,0,0,1-.918.386H583.3a1.237,1.237,0,0,1-.918-.386,1.2,1.2,0,0,1-.338-.918v-11.2a1.138,1.138,0,0,1,1.256-1.3,1.153,1.153,0,0,1,1.3,1.3v9.9h3.719a1.319,1.319,0,0,1,1.3,1.3,1.084,1.084,0,0,1-.387.918Zm-8.6-.966c0,.918-.435,1.352-1.3,1.352s-1.256-.435-1.256-1.352v-6.182l-3.043,6.762a.99.99,0,0,1-.483.579.97.97,0,0,1-.628.193,1.129,1.129,0,0,1-1.111-.821l-2.946-6.616v6.085c0,.918-.435,1.352-1.256,1.352-.869,0-1.3-.435-1.3-1.352V444.893a1.311,1.311,0,0,1,1.5-1.5,1.433,1.433,0,0,1,1.353.966l3.767,8.355,3.767-8.4a1.568,1.568,0,0,1,1.642-.917c.869,0,1.3.531,1.3,1.545v10.867Zm-15.5-9.853h-1.884v9.9a1.138,1.138,0,0,1-1.256,1.3,1.153,1.153,0,0,1-1.3-1.3v-9.9h-1.787c-.918,0-1.353-.435-1.353-1.3,0-.821.435-1.256,1.353-1.256h6.23a1.28,1.28,0,1,1,0,2.56Zm-8.5,9.949c0,.821-.386,1.256-1.207,1.256-.869,0-1.353-.435-1.353-1.256V451.22H548.96V455.9a1.123,1.123,0,0,1-1.256,1.256,1.138,1.138,0,0,1-1.3-1.256V444.7c0-.869.435-1.3,1.353-1.3.821,0,1.207.435,1.207,1.3v3.961h5.119V444.7c0-.869.435-1.3,1.353-1.3.821,0,1.207.435,1.207,1.3v11.2Zm46.7,3.333V441.512a3.617,3.617,0,0,0-3.622-3.622H546.352a3.618,3.618,0,0,0-3.622,3.622v17.725a3.618,3.618,0,0,0,3.622,3.622H599.72a3.587,3.587,0,0,0,3.622-3.622Z" transform="translate(-518.243 -385.295)" fill="#666"/>
        </g>
      </g>
      <g id="NewGroup1-43" transform="translate(4659.189 6544.221)">
        <g id="Group_587" data-name="Group 587" transform="translate(625.73 229)">
          <path id="Path_1857" data-name="Path 1857" d="M707.035,266.174a5.754,5.754,0,0,1-10.962,0,4.989,4.989,0,0,1-.238-1.716,5.719,5.719,0,0,1,11.438,0,6.483,6.483,0,0,1-.238,1.716Zm-32.17-22.352a5.759,5.759,0,0,1-5.29,3.527,5.686,5.686,0,0,1-5.29-3.527,5.62,5.62,0,0,1-.429-2.192,5.719,5.719,0,0,1,11.438,0,5.008,5.008,0,0,1-.429,2.192Zm.477,96.508a5.719,5.719,0,0,1-11.438,0,5.812,5.812,0,0,1,.858-3,5.708,5.708,0,0,1,9.722,0,5.811,5.811,0,0,1,.858,3Zm-37.078-18.587a5.736,5.736,0,0,1-5.719-5.719,6.421,6.421,0,0,1,.238-1.668,5.733,5.733,0,0,1,10.962,0,6.408,6.408,0,0,1,.238,1.668,5.705,5.705,0,0,1-5.719,5.719Zm63.29-69.867a12.58,12.58,0,0,0-6.577,23.3v9.055a4.634,4.634,0,0,1-1.716,3.622l-18.11,15.251V252.877a12.582,12.582,0,1,0-11.057,0v8.293l-26.069,21.923a17.136,17.136,0,0,0-6.1,13.106v8.912a12.585,12.585,0,1,0,12.344-.238v-8.626a4.634,4.634,0,0,1,1.716-3.622l18.11-15.251v51.614a12.582,12.582,0,1,0,11.057,0v-9.675l26.069-21.923a17.136,17.136,0,0,0,6.1-13.106v-8.626a12.593,12.593,0,0,0-5.767-23.782Z" transform="translate(-625.73 -229)" fill="#666"/>
        </g>
      </g>
    </g>
  </g>
</svg>
